<svg xmlns="http://www.w3.org/2000/svg" xmlns:xlink="http://www.w3.org/1999/xlink" version="1.1" data-diagram-type="DESCRIPTION" style="width:1437px;height:1222px;background:#FFFFFF;" width="1437px" height="1222px" viewBox="0 0 1437 1222" zoomAndPan="magnify" preserveAspectRatio="none" contentStyleType="text/css"><?plantuml 1.2026.7beta8?><defs/><g font-family="sans-serif" lengthAdjust="spacing"><g class="title" data-source-line="5"><text x="512.924" y="22.995" fill="#000" font-size="14" textLength="404.551" font-weight="700">Component Diagram (C4 Level 3) - REST API Server</text></g><!--cluster api_server--><g class="cluster" data-qualified-name="api_server" id="ent0004" data-source-line="1690"><rect x="7" y="220.787" width="1182" height="621.62" fill="none" style="stroke:#444;stroke-width:1;stroke-dasharray:7,7;"/><text x="424.59" y="237.638" fill="#444" font-size="16" textLength="346.82" font-weight="700">REST API Server (Container Boundary)</text><text x="568.272" y="252.551" fill="#444" font-size="12" textLength="59.455" font-weight="700">[system]</text></g><!--entity router--><g class="entity" data-qualified-name="api_server.router" id="ent0005" data-source-line="83"><rect x="489.68" y="271.787" width="214.633" height="120.109" fill="#85BBF0" style="stroke:#78A8D8;stroke-width:0.5;"/><text x="518.657" y="296.638" fill="#000" font-size="16" textLength="70.492" font-weight="700">Express</text><text x="589.149" y="296.638" fill="#000" font-size="16" font-weight="700"> </text><text x="594.719" y="296.638" fill="#000" font-size="16" textLength="61.094" font-weight="700">Router</text><text x="655.813" y="296.638" fill="#000" font-size="16" font-weight="700"> </text><text x="661.383" y="296.638" fill="#000" font-size="16" font-weight="700">&amp;</text><text x="520.321" y="315.263" fill="#000" font-size="16" textLength="42.813" font-weight="700">Auth</text><text x="563.133" y="315.263" fill="#000" font-size="16" font-weight="700"> </text><text x="568.703" y="315.263" fill="#000" font-size="16" textLength="104.969" font-weight="700">Middleware</text><text x="546.694" y="330.176" fill="#000" font-size="12" textLength="51.803" font-style="italic">[Express</text><text x="598.496" y="330.176" fill="#000" font-size="12" font-style="italic"> </text><text x="602.311" y="330.176" fill="#000" font-size="12" textLength="44.988" font-style="italic">Router]</text><text x="594.771" y="346.001" fill="#000" font-size="14"> </text><text x="513.666" y="362.298" fill="#000" font-size="14" textLength="114.338">Marşrutlaşdırma</text><text x="628.004" y="362.298" fill="#000" font-size="14"> </text><text x="632.454" y="362.298" fill="#000" font-size="14" textLength="16.898">və</text><text x="649.353" y="362.298" fill="#000" font-size="14"> </text><text x="653.803" y="362.298" fill="#000" font-size="14" textLength="26.523">JWT</text><text x="499.68" y="378.594" fill="#000" font-size="14" textLength="39.648">token</text><text x="539.328" y="378.594" fill="#000" font-size="14"> </text><text x="543.779" y="378.594" fill="#000" font-size="14" textLength="74.313">yoxlanışını</text><text x="618.092" y="378.594" fill="#000" font-size="14"> </text><text x="622.542" y="378.594" fill="#000" font-size="14" textLength="35.725">idarə</text><text x="658.267" y="378.594" fill="#000" font-size="14"> </text><text x="662.717" y="378.594" fill="#000" font-size="14" textLength="31.596">edir.</text></g><!--entity auth_svc--><g class="entity" data-qualified-name="api_server.auth_svc" id="ent0006" data-source-line="83"><rect x="23.22" y="480.897" width="199.553" height="136.406" fill="#85BBF0" style="stroke:#78A8D8;stroke-width:0.5;"/><text x="51.278" y="505.748" fill="#000" font-size="16" textLength="83.641" font-weight="700">İstifadəçi</text><text x="134.918" y="505.748" fill="#000" font-size="16" font-weight="700"> </text><text x="140.489" y="505.748" fill="#000" font-size="16" font-weight="700">/</text><text x="146.332" y="505.748" fill="#000" font-size="16" font-weight="700"> </text><text x="151.903" y="505.748" fill="#000" font-size="16" textLength="42.813" font-weight="700">Auth</text><text x="88.032" y="524.373" fill="#000" font-size="16" textLength="69.93" font-weight="700">Xidməti</text><text x="78.861" y="539.286" fill="#000" font-size="12" textLength="43.869" font-style="italic">[Bcrypt</text><text x="122.73" y="539.286" fill="#000" font-size="12" font-style="italic"> </text><text x="126.544" y="539.286" fill="#000" font-size="12" font-style="italic">&amp;</text><text x="135.902" y="539.286" fill="#000" font-size="12" font-style="italic"> </text><text x="139.716" y="539.286" fill="#000" font-size="12" textLength="27.416" font-style="italic">JWT]</text><text x="120.771" y="555.111" fill="#000" font-size="14"> </text><text x="33.22" y="571.408" fill="#000" font-size="14" textLength="63.396">İstifadəçi</text><text x="96.616" y="571.408" fill="#000" font-size="14"> </text><text x="101.067" y="571.408" fill="#000" font-size="14" textLength="77.54">qeydiyyatı,</text><text x="178.607" y="571.408" fill="#000" font-size="14"> </text><text x="183.057" y="571.408" fill="#000" font-size="14" textLength="29.716">giriş</text><text x="68.883" y="587.704" fill="#000" font-size="14" textLength="16.898">və</text><text x="85.782" y="587.704" fill="#000" font-size="14"> </text><text x="90.232" y="587.704" fill="#000" font-size="14" textLength="86.878">təhlükəsizlik</text><text x="37.708" y="604.001" fill="#000" font-size="14" textLength="104.159">əməliyyatlarını</text><text x="141.867" y="604.001" fill="#000" font-size="14"> </text><text x="146.317" y="604.001" fill="#000" font-size="14" textLength="25.922">icra</text><text x="172.239" y="604.001" fill="#000" font-size="14"> </text><text x="176.689" y="604.001" fill="#000" font-size="14" textLength="31.596">edir.</text></g><!--entity sub_svc--><g class="entity" data-qualified-name="api_server.sub_svc" id="ent0007" data-source-line="83"><rect x="258.05" y="490.207" width="201.897" height="117.781" fill="#85BBF0" style="stroke:#78A8D8;stroke-width:0.5;"/><text x="281.71" y="515.058" fill="#000" font-size="16" textLength="79.078" font-weight="700">Abunəlik</text><text x="360.788" y="515.058" fill="#000" font-size="16" font-weight="700"> </text><text x="366.358" y="515.058" fill="#000" font-size="16" textLength="69.93" font-weight="700">Xidməti</text><text x="292.688" y="529.971" fill="#000" font-size="12" textLength="64.834" font-style="italic">[JavaScript</text><text x="357.522" y="529.971" fill="#000" font-size="12" font-style="italic"> </text><text x="361.337" y="529.971" fill="#000" font-size="12" textLength="63.973" font-style="italic">Controller]</text><text x="356.774" y="545.796" fill="#000" font-size="14"> </text><text x="268.05" y="562.093" fill="#000" font-size="14" textLength="91.731">Abunəliklərin</text><text x="359.781" y="562.093" fill="#000" font-size="14"> </text><text x="364.232" y="562.093" fill="#000" font-size="14" textLength="85.716">yaradılması,</text><text x="276.468" y="578.389" fill="#000" font-size="14" textLength="65.229">redaktəsi</text><text x="341.697" y="578.389" fill="#000" font-size="14"> </text><text x="346.147" y="578.389" fill="#000" font-size="14" textLength="16.898">və</text><text x="363.046" y="578.389" fill="#000" font-size="14"> </text><text x="367.496" y="578.389" fill="#000" font-size="14" textLength="74.033">silinməsini</text><text x="323.113" y="594.686" fill="#000" font-size="14" textLength="35.725">idarə</text><text x="358.838" y="594.686" fill="#000" font-size="14"> </text><text x="363.288" y="594.686" fill="#000" font-size="14" textLength="31.596">edir.</text></g><!--entity budget_svc--><g class="entity" data-qualified-name="api_server.budget_svc" id="ent0008" data-source-line="83"><rect x="494.49" y="482.057" width="205.028" height="134.078" fill="#85BBF0" style="stroke:#78A8D8;stroke-width:0.5;"/><text x="531.567" y="506.908" fill="#000" font-size="16" textLength="55.375" font-weight="700">Büdcə</text><text x="586.942" y="506.908" fill="#000" font-size="16" font-weight="700"> </text><text x="592.512" y="506.908" fill="#000" font-size="16" textLength="69.93" font-weight="700">Xidməti</text><text x="530.694" y="521.821" fill="#000" font-size="12" textLength="64.834" font-style="italic">[JavaScript</text><text x="595.528" y="521.821" fill="#000" font-size="12" font-style="italic"> </text><text x="599.342" y="521.821" fill="#000" font-size="12" textLength="63.973" font-style="italic">Controller]</text><text x="594.779" y="537.646" fill="#000" font-size="14"> </text><text x="504.49" y="553.943" fill="#000" font-size="14" textLength="43.675">Büdcə</text><text x="548.165" y="553.943" fill="#000" font-size="14"> </text><text x="552.615" y="553.943" fill="#000" font-size="14" textLength="65.707">limitlərini</text><text x="618.322" y="553.943" fill="#000" font-size="14"> </text><text x="622.772" y="553.943" fill="#000" font-size="14" textLength="35.15">təyin</text><text x="657.923" y="553.943" fill="#000" font-size="14"> </text><text x="662.373" y="553.943" fill="#000" font-size="14" textLength="27.146">edir</text><text x="521.289" y="570.239" fill="#000" font-size="14" textLength="16.898">və</text><text x="538.188" y="570.239" fill="#000" font-size="14"> </text><text x="542.638" y="570.239" fill="#000" font-size="14" textLength="69.214">xərclənən</text><text x="611.852" y="570.239" fill="#000" font-size="14"> </text><text x="616.302" y="570.239" fill="#000" font-size="14" textLength="56.417">məbləği</text><text x="542.382" y="586.536" fill="#000" font-size="14" textLength="50.08">(spent)</text><text x="592.462" y="586.536" fill="#000" font-size="14"> </text><text x="596.912" y="586.536" fill="#000" font-size="14" textLength="54.715">hesabla</text><text x="545.041" y="602.833" fill="#000" font-size="14" textLength="103.927">sinxronlaşdırır.</text></g><!--entity card_svc--><g class="entity" data-qualified-name="api_server.card_svc" id="ent0009" data-source-line="83"><rect x="983.04" y="480.897" width="189.928" height="136.406" fill="#85BBF0" style="stroke:#78A8D8;stroke-width:0.5;"/><text x="1009.871" y="505.748" fill="#000" font-size="16" textLength="62.305" font-weight="700">Ödəniş</text><text x="1072.176" y="505.748" fill="#000" font-size="16" font-weight="700"> </text><text x="1077.746" y="505.748" fill="#000" font-size="16" textLength="68.391" font-weight="700">Kartları</text><text x="1043.039" y="524.373" fill="#000" font-size="16" textLength="69.93" font-weight="700">Xidməti</text><text x="1011.693" y="539.286" fill="#000" font-size="12" textLength="64.834" font-style="italic">[JavaScript</text><text x="1076.527" y="539.286" fill="#000" font-size="12" font-style="italic"> </text><text x="1080.342" y="539.286" fill="#000" font-size="12" textLength="63.973" font-style="italic">Controller]</text><text x="1075.779" y="555.111" fill="#000" font-size="14"> </text><text x="993.04" y="571.408" fill="#000" font-size="14" textLength="48.576">Ödəniş</text><text x="1041.616" y="571.408" fill="#000" font-size="14"> </text><text x="1046.066" y="571.408" fill="#000" font-size="14" textLength="84.52">metodlarını,</text><text x="1130.586" y="571.408" fill="#000" font-size="14"> </text><text x="1135.036" y="571.408" fill="#000" font-size="14" textLength="27.932">kart</text><text x="1012.064" y="587.704" fill="#000" font-size="14" textLength="110.53">doğrulamalarını</text><text x="1122.595" y="587.704" fill="#000" font-size="14"> </text><text x="1127.045" y="587.704" fill="#000" font-size="14" textLength="16.898">və</text><text x="999.011" y="604.001" fill="#000" font-size="14" textLength="72.892">əlavələrini</text><text x="1071.903" y="604.001" fill="#000" font-size="14"> </text><text x="1076.353" y="604.001" fill="#000" font-size="14" textLength="35.725">idarə</text><text x="1112.078" y="604.001" fill="#000" font-size="14"> </text><text x="1116.528" y="604.001" fill="#000" font-size="14" textLength="40.469">edrin.</text></g><!--entity history_svc--><g class="entity" data-qualified-name="api_server.history_svc" id="ent0010" data-source-line="83"><rect x="734.22" y="480.897" width="213.566" height="136.406" fill="#85BBF0" style="stroke:#78A8D8;stroke-width:0.5;"/><text x="766.691" y="505.748" fill="#000" font-size="16" textLength="62.305" font-weight="700">Ödəniş</text><text x="828.995" y="505.748" fill="#000" font-size="16" font-weight="700"> </text><text x="834.566" y="505.748" fill="#000" font-size="16" textLength="80.75" font-weight="700">Tarixçəsi</text><text x="806.038" y="524.373" fill="#000" font-size="16" textLength="69.93" font-weight="700">Xidməti</text><text x="774.693" y="539.286" fill="#000" font-size="12" textLength="64.834" font-style="italic">[JavaScript</text><text x="839.527" y="539.286" fill="#000" font-size="12" font-style="italic"> </text><text x="843.341" y="539.286" fill="#000" font-size="12" textLength="63.973" font-style="italic">Controller]</text><text x="838.778" y="555.111" fill="#000" font-size="14"> </text><text x="751.008" y="571.408" fill="#000" font-size="14" textLength="48.576">Ödəniş</text><text x="799.584" y="571.408" fill="#000" font-size="14"> </text><text x="804.034" y="571.408" fill="#000" font-size="14" textLength="72.256">tarixçəsini</text><text x="876.29" y="571.408" fill="#000" font-size="14"> </text><text x="880.741" y="571.408" fill="#000" font-size="14" textLength="50.258">bazaya</text><text x="744.22" y="587.704" fill="#000" font-size="14" textLength="33.858">yazır</text><text x="778.078" y="587.704" fill="#000" font-size="14"> </text><text x="782.529" y="587.704" fill="#000" font-size="14" textLength="16.898">və</text><text x="799.427" y="587.704" fill="#000" font-size="14"> </text><text x="803.877" y="587.704" fill="#000" font-size="14" textLength="80.056">istifadəçiyə</text><text x="883.933" y="587.704" fill="#000" font-size="14"> </text><text x="888.383" y="587.704" fill="#000" font-size="14" textLength="49.403">təqdim</text><text x="825.205" y="604.001" fill="#000" font-size="14" textLength="31.596">edir.</text></g><!--entity db_adapter--><g class="entity" data-qualified-name="api_server.db_adapter" id="ent0011" data-source-line="83"><rect x="466.55" y="706.297" width="216.902" height="120.109" fill="#85BBF0" style="stroke:#78A8D8;stroke-width:0.5;"/><text x="498.88" y="731.148" fill="#000" font-size="16" textLength="88.563" font-weight="700">Verilənlər</text><text x="587.443" y="731.148" fill="#000" font-size="16" font-weight="700"> </text><text x="593.013" y="731.148" fill="#000" font-size="16" textLength="58.109" font-weight="700">Bazası</text><text x="532.997" y="749.773" fill="#000" font-size="16" textLength="84.008" font-weight="700">Adaptoru</text><text x="510.22" y="764.686" fill="#000" font-size="12" textLength="61.201" font-style="italic">[OracleDB</text><text x="571.421" y="764.686" fill="#000" font-size="12" font-style="italic"> </text><text x="575.236" y="764.686" fill="#000" font-size="12" font-style="italic">/</text><text x="579.279" y="764.686" fill="#000" font-size="12" font-style="italic"> </text><text x="583.093" y="764.686" fill="#000" font-size="12" textLength="15.234" font-style="italic">pg</text><text x="598.327" y="764.686" fill="#000" font-size="12" font-style="italic"> </text><text x="602.142" y="764.686" fill="#000" font-size="12" textLength="37.641" font-style="italic">client]</text><text x="572.776" y="780.511" fill="#000" font-size="14"> </text><text x="476.55" y="796.808" fill="#000" font-size="14" textLength="34.111">Baza</text><text x="510.661" y="796.808" fill="#000" font-size="14"> </text><text x="515.112" y="796.808" fill="#000" font-size="14" textLength="16.393">ilə</text><text x="531.504" y="796.808" fill="#000" font-size="14"> </text><text x="535.954" y="796.808" fill="#000" font-size="14" textLength="51.871">birbaşa</text><text x="587.825" y="796.808" fill="#000" font-size="14"> </text><text x="592.276" y="796.808" fill="#000" font-size="14" textLength="38.582">əlaqə</text><text x="630.858" y="796.808" fill="#000" font-size="14"> </text><text x="635.308" y="796.808" fill="#000" font-size="14" textLength="38.145">qurur</text><text x="477.914" y="813.104" fill="#000" font-size="14" textLength="16.898">və</text><text x="494.812" y="813.104" fill="#000" font-size="14"> </text><text x="499.262" y="813.104" fill="#000" font-size="14" textLength="27.706">SQL</text><text x="526.968" y="813.104" fill="#000" font-size="14"> </text><text x="531.419" y="813.104" fill="#000" font-size="14" textLength="74.252">sorğularını</text><text x="605.671" y="813.104" fill="#000" font-size="14"> </text><text x="610.121" y="813.104" fill="#000" font-size="14" textLength="25.922">icra</text><text x="636.043" y="813.104" fill="#000" font-size="14"> </text><text x="640.493" y="813.104" fill="#000" font-size="14" textLength="31.596">edir.</text></g><!--entity frontend--><g class="entity" data-qualified-name="frontend" id="ent0001" data-source-line="76"><rect x="498.26" y="44.297" width="197.484" height="101.484" fill="#438DD5" style="stroke:#3C7FC0;stroke-width:0.5;"/><text x="508.26" y="69.148" fill="#FFF" font-size="16" textLength="49.336" font-weight="700">Mobil</text><text x="557.596" y="69.148" fill="#FFF" font-size="16" font-weight="700"> </text><text x="563.166" y="69.148" fill="#FFF" font-size="16" textLength="34.688" font-weight="700">Veb</text><text x="597.854" y="69.148" fill="#FFF" font-size="16" font-weight="700"> </text><text x="603.424" y="69.148" fill="#FFF" font-size="16" textLength="57.805" font-weight="700">Tətbiq</text><text x="661.229" y="69.148" fill="#FFF" font-size="16" font-weight="700"> </text><text x="666.799" y="69.148" fill="#FFF" font-size="16" textLength="18.945" font-weight="700">UI</text><text x="550.611" y="84.061" fill="#FFF" font-size="12" textLength="41.889" font-style="italic">[HTML,</text><text x="592.499" y="84.061" fill="#FFF" font-size="12" font-style="italic"> </text><text x="596.314" y="84.061" fill="#FFF" font-size="12" textLength="27.428" font-style="italic">CSS,</text><text x="623.741" y="84.061" fill="#FFF" font-size="12" font-style="italic"> </text><text x="627.556" y="84.061" fill="#FFF" font-size="12" textLength="15.838" font-style="italic">JS]</text><text x="594.777" y="99.886" fill="#FFF" font-size="14"> </text><text x="513.159" y="116.183" fill="#FFF" font-size="14" textLength="44.099">API-yə</text><text x="557.258" y="116.183" fill="#FFF" font-size="14"> </text><text x="561.708" y="116.183" fill="#FFF" font-size="14" textLength="44.96">HTTPS</text><text x="606.668" y="116.183" fill="#FFF" font-size="14"> </text><text x="611.118" y="116.183" fill="#FFF" font-size="14" textLength="69.727">üzərindən</text><text x="534.139" y="132.479" fill="#FFF" font-size="14" textLength="57.6">sorğular</text><text x="591.739" y="132.479" fill="#FFF" font-size="14"> </text><text x="596.189" y="132.479" fill="#FFF" font-size="14" textLength="63.677">göndərir.</text></g><!--entity cron--><g class="entity" data-qualified-name="cron" id="ent0002" data-source-line="76"><rect x="1204.61" y="281.097" width="218.789" height="101.484" fill="#438DD5" style="stroke:#3C7FC0;stroke-width:0.5;"/><text x="1238.262" y="305.948" fill="#FFF" font-size="16" textLength="42.016" font-weight="700">Cron</text><text x="1280.278" y="305.948" fill="#FFF" font-size="16" font-weight="700"> </text><text x="1285.848" y="305.948" fill="#FFF" font-size="16" textLength="28.398" font-weight="700">Job</text><text x="1314.247" y="305.948" fill="#FFF" font-size="16" font-weight="700"> </text><text x="1319.817" y="305.948" fill="#FFF" font-size="16" textLength="69.93" font-weight="700">Xidməti</text><text x="1249.967" y="320.861" fill="#FFF" font-size="12" textLength="66.809" font-style="italic">[Node-cron</text><text x="1316.776" y="320.861" fill="#FFF" font-size="12" font-style="italic"> </text><text x="1320.59" y="320.861" fill="#FFF" font-size="12" textLength="57.451" font-style="italic">(Worker)]</text><text x="1311.779" y="336.686" fill="#FFF" font-size="14"> </text><text x="1218.401" y="352.983" fill="#FFF" font-size="14" textLength="65.823">Büdcələri</text><text x="1284.224" y="352.983" fill="#FFF" font-size="14"> </text><text x="1288.674" y="352.983" fill="#FFF" font-size="14" textLength="120.935">sinxronlaşdırmaq</text><text x="1214.61" y="369.279" fill="#FFF" font-size="14" textLength="34.316">üçün</text><text x="1248.926" y="369.279" fill="#FFF" font-size="14"> </text><text x="1253.377" y="369.279" fill="#FFF" font-size="14" textLength="22.148">API</text><text x="1275.525" y="369.279" fill="#FFF" font-size="14"> </text><text x="1279.975" y="369.279" fill="#FFF" font-size="14" textLength="80.069">metodlarını</text><text x="1360.045" y="369.279" fill="#FFF" font-size="14"> </text><text x="1364.495" y="369.279" fill="#FFF" font-size="14" textLength="48.904">çağırır.</text></g><!--entity database--><g class="entity" data-qualified-name="database" id="ent0003" data-source-line="80"><path d="M488.88,927.407 C488.88,917.407 575.001,917.407 575.001,917.407 C575.001,917.407 661.122,917.407 661.122,927.407 L661.122,1001.594 C661.122,1011.594 575.001,1011.594 575.001,1011.594 C575.001,1011.594 488.88,1011.594 488.88,1001.594 L488.88,927.407" style="stroke:#3C7FC0;stroke-width:0.5;" fill="#438DD5"/><path d="M488.88,927.407 C488.88,937.407 575.001,937.407 575.001,937.407 C575.001,937.407 661.122,937.407 661.122,927.407" style="stroke:#3C7FC0;stroke-width:0.5;" fill="none"/><text x="498.88" y="956.258" fill="#FFF" font-size="16" textLength="88.563" font-weight="700">Verilənlər</text><text x="587.443" y="956.258" fill="#FFF" font-size="16" font-weight="700"> </text><text x="593.013" y="956.258" fill="#FFF" font-size="16" textLength="58.109" font-weight="700">Bazası</text><text x="510.352" y="971.171" fill="#FFF" font-size="12" textLength="43.729" font-style="italic">[Oracle</text><text x="554.08" y="971.171" fill="#FFF" font-size="12" font-style="italic"> </text><text x="557.895" y="971.171" fill="#FFF" font-size="12" font-style="italic">/</text><text x="561.938" y="971.171" fill="#FFF" font-size="12" font-style="italic"> </text><text x="565.752" y="971.171" fill="#FFF" font-size="12" textLength="73.898" font-style="italic">PostgreSQL]</text><text x="572.776" y="986.996" fill="#FFF" font-size="14"> </text><text x="501.634" y="1003.293" fill="#FFF" font-size="14" textLength="83.275">Məlumatları</text><text x="584.91" y="1003.293" fill="#FFF" font-size="14"> </text><text x="589.36" y="1003.293" fill="#FFF" font-size="14" textLength="59.008">saxlayır.</text></g><!--entity payment_gateway--><g class="entity" data-qualified-name="payment_gateway" id="ent0012" data-source-line="419"><rect x="1205.09" y="721.437" width="185.82" height="89.844" fill="#999" style="stroke:#8A8A8A;stroke-width:0.5;"/><text x="1215.09" y="746.288" fill="#FFF" font-size="16" textLength="62.305" font-weight="700">Ödəniş</text><text x="1277.395" y="746.288" fill="#FFF" font-size="16" font-weight="700"> </text><text x="1282.965" y="746.288" fill="#FFF" font-size="16" textLength="97.945" font-weight="700">Provayderi</text><text x="1267.168" y="764.913" fill="#FFF" font-size="16" textLength="61.664" font-weight="700">(Mock)</text><text x="1295.775" y="781.682" fill="#FFF" font-size="14"> </text><text x="1216.246" y="797.979" fill="#FFF" font-size="14" textLength="29.005">Kart</text><text x="1245.251" y="797.979" fill="#FFF" font-size="14"> </text><text x="1249.701" y="797.979" fill="#FFF" font-size="14" textLength="86.837">doğrulaması</text><text x="1336.538" y="797.979" fill="#FFF" font-size="14"> </text><text x="1340.988" y="797.979" fill="#FFF" font-size="14" textLength="38.767">üçün.</text></g><!--link frontend to router--><g class="link" data-entity-1="ent0001" data-entity-2="ent0005" id="lnk13" data-source-line="1803" data-link-type="dependency"><path d="M597,146.127 C597,182.897 597,224.967 597,263.707" style="stroke:#666;stroke-width:1;" fill="none" id="frontend-to-router"/><polygon points="597,271.707,600,263.707,594,263.707,597,271.707" fill="#666" style="stroke:#666;stroke-width:1;stroke-linejoin:miter;stroke-miterlimit:10;"/><text x="598" y="187.926" fill="#666" font-size="12" textLength="43.852" font-weight="700">HTTPS</text><text x="641.852" y="187.926" fill="#666" font-size="12" font-weight="700"> </text><text x="646.029" y="187.926" fill="#666" font-size="12" font-weight="700">/</text><text x="650.412" y="187.926" fill="#666" font-size="12" font-weight="700"> </text><text x="654.59" y="187.926" fill="#666" font-size="12" textLength="33.352" font-weight="700">JSON</text><text x="687.941" y="187.926" fill="#666" font-size="12" font-weight="700"> </text><text x="692.119" y="187.926" fill="#666" font-size="12" textLength="60.68" font-weight="700">sorğuları</text><text x="646.372" y="201.894" fill="#666" font-size="12" textLength="58.055" font-weight="700">göndərir</text></g><!--link cron to budget_svc--><g class="link" data-entity-1="ent0002" data-entity-2="ent0008" id="lnk14" data-source-line="1803" data-link-type="dependency"><path d="M1245.05,382.957 C1206.88,407.927 1157.46,435.927 1109,450.897 C942.04,502.437 884.26,430.357 717,480.897 C711.29,482.617 712.979,481.703 707.269,483.963" style="stroke:#666;stroke-width:1;" fill="none" id="cron-to-budget_svc"/><polygon points="699.83,486.907,708.373,486.752,706.164,481.173,699.83,486.907" fill="#666" style="stroke:#666;stroke-width:1;stroke-linejoin:miter;stroke-miterlimit:10;"/><text x="1175" y="434.036" fill="#666" font-size="12" textLength="98.115" font-weight="700">Sinxronizasiya</text><text x="1273.115" y="434.036" fill="#666" font-size="12" font-weight="700"> </text><text x="1277.293" y="434.036" fill="#666" font-size="12" textLength="60.68" font-weight="700">sorğuları</text><text x="1227.459" y="448.004" fill="#666" font-size="12" textLength="58.055" font-weight="700">göndərir</text></g><!--link router to auth_svc--><g class="link" data-entity-1="ent0005" data-entity-2="ent0006" id="lnk15" data-source-line="1803" data-link-type="dependency"><path d="M489.25,337.017 C406.87,344.827 293.77,365.957 211,421.897 C189.09,436.697 175.305,452.203 161.315,473.903" style="stroke:#666;stroke-width:1;" fill="none" id="router-to-auth_svc"/><polygon points="156.98,480.627,163.836,475.529,158.793,472.278,156.98,480.627" fill="#666" style="stroke:#666;stroke-width:1;stroke-linejoin:miter;stroke-miterlimit:10;"/><text x="212" y="434.036" fill="#666" font-size="12" textLength="103.863" font-weight="700">Giriş/Qeydiyyat</text><text x="315.863" y="434.036" fill="#666" font-size="12" font-weight="700"> </text><text x="320.041" y="434.036" fill="#666" font-size="12" textLength="73.336" font-weight="700">sorğularını</text><text x="265.66" y="448.004" fill="#666" font-size="12" textLength="74.057" font-weight="700">yönləndirir</text></g><!--link router to sub_svc--><g class="link" data-entity-1="ent0005" data-entity-2="ent0007" id="lnk16" data-source-line="1803" data-link-type="dependency"><path d="M489.62,374.447 C465.73,387.147 441.92,402.907 423,421.897 C404.1,440.867 392.932,459.243 382.622,482.503" style="stroke:#666;stroke-width:1;" fill="none" id="router-to-sub_svc"/><polygon points="379.38,489.817,385.364,483.719,379.879,481.287,379.38,489.817" fill="#666" style="stroke:#666;stroke-width:1;stroke-linejoin:miter;stroke-miterlimit:10;"/><text x="424" y="434.036" fill="#666" font-size="12" textLength="59.309" font-weight="700">Abunəlik</text><text x="483.309" y="434.036" fill="#666" font-size="12" font-weight="700"> </text><text x="487.486" y="434.036" fill="#666" font-size="12" textLength="101.385" font-weight="700">əməliyyatlarını</text><text x="469.407" y="448.004" fill="#666" font-size="12" textLength="74.057" font-weight="700">yönləndirir</text></g><!--link router to budget_svc--><g class="link" data-entity-1="ent0005" data-entity-2="ent0008" id="lnk17" data-source-line="1803" data-link-type="dependency"><path d="M597,392.227 C597,419.977 597,445.127 597,473.707" style="stroke:#666;stroke-width:1;" fill="none" id="router-to-budget_svc"/><polygon points="597,481.707,600,473.707,594,473.707,597,481.707" fill="#666" style="stroke:#666;stroke-width:1;stroke-linejoin:miter;stroke-miterlimit:10;"/><text x="598" y="434.036" fill="#666" font-size="12" textLength="41.531" font-weight="700">Büdcə</text><text x="639.531" y="434.036" fill="#666" font-size="12" font-weight="700"> </text><text x="643.709" y="434.036" fill="#666" font-size="12" textLength="101.385" font-weight="700">əməliyyatlarını</text><text x="634.519" y="448.004" fill="#666" font-size="12" textLength="74.057" font-weight="700">yönləndirir</text></g><!--link router to card_svc--><g class="link" data-entity-1="ent0005" data-entity-2="ent0009" id="lnk18" data-source-line="1803" data-link-type="dependency"><path d="M704.62,351.947 C768.35,365.887 849.38,388.307 916,421.897 C946.88,437.467 971.392,454.336 997.662,475.516" style="stroke:#666;stroke-width:1;" fill="none" id="router-to-card_svc"/><polygon points="1003.89,480.537,999.545,473.18,995.779,477.851,1003.89,480.537" fill="#666" style="stroke:#666;stroke-width:1;stroke-linejoin:miter;stroke-miterlimit:10;"/><text x="966" y="434.036" fill="#666" font-size="12" textLength="29.051" font-weight="700">Kart</text><text x="995.051" y="434.036" fill="#666" font-size="12" font-weight="700"> </text><text x="999.229" y="434.036" fill="#666" font-size="12" textLength="101.385" font-weight="700">əməliyyatlarını</text><text x="996.278" y="448.004" fill="#666" font-size="12" textLength="74.057" font-weight="700">yönləndirir</text></g><!--link router to history_svc--><g class="link" data-entity-1="ent0005" data-entity-2="ent0010" id="lnk19" data-source-line="1803" data-link-type="dependency"><path d="M704.51,385.117 C722,396.007 739.21,408.347 754,421.897 C772.35,438.697 784.45,453.419 798.07,473.769" style="stroke:#666;stroke-width:1;" fill="none" id="router-to-history_svc"/><polygon points="802.52,480.417,800.563,472.1,795.577,475.437,802.52,480.417" fill="#666" style="stroke:#666;stroke-width:1;stroke-linejoin:miter;stroke-miterlimit:10;"/><text x="781" y="434.036" fill="#666" font-size="12" textLength="49.307" font-weight="700">Tarixçə</text><text x="830.307" y="434.036" fill="#666" font-size="12" font-weight="700"> </text><text x="834.484" y="434.036" fill="#666" font-size="12" textLength="73.336" font-weight="700">sorğularını</text><text x="807.382" y="448.004" fill="#666" font-size="12" textLength="74.057" font-weight="700">yönləndirir</text></g><!--link auth_svc to db_adapter--><g class="link" data-entity-1="ent0006" data-entity-2="ent0011" id="lnk20" data-source-line="1803" data-link-type="dependency"><path d="M162.13,617.667 C177.64,639.247 197.24,661.367 220,676.297 C293.71,724.667 383.883,745.681 458.273,755.781" style="stroke:#666;stroke-width:1;" fill="none" id="auth_svc-to-db_adapter"/><polygon points="466.2,756.857,458.676,752.808,457.869,758.753,466.2,756.857" fill="#666" style="stroke:#666;stroke-width:1;stroke-linejoin:miter;stroke-miterlimit:10;"/><text x="221" y="659.436" fill="#666" font-size="12" textLength="62.73" font-weight="700">İstifadəçi</text><text x="283.73" y="659.436" fill="#666" font-size="12" font-weight="700"> </text><text x="287.908" y="659.436" fill="#666" font-size="12" textLength="94.535" font-weight="700">məlumatlarını</text><text x="267.471" y="673.404" fill="#666" font-size="12" textLength="68.502" font-weight="700">sorğulayır</text></g><!--link sub_svc to db_adapter--><g class="link" data-entity-1="ent0007" data-entity-2="ent0011" id="lnk21" data-source-line="1803" data-link-type="dependency"><path d="M372.62,608.177 C380.31,631.397 391.91,657.117 409,676.297 C424.88,694.127 438.286,705.002 459.226,717.192" style="stroke:#666;stroke-width:1;" fill="none" id="sub_svc-to-db_adapter"/><polygon points="466.14,721.217,460.735,714.599,457.717,719.785,466.14,721.217" fill="#666" style="stroke:#666;stroke-width:1;stroke-linejoin:miter;stroke-miterlimit:10;"/><text x="410" y="666.436" fill="#666" font-size="12" textLength="81.592" font-weight="700">Abunəlikləri</text><text x="491.592" y="666.436" fill="#666" font-size="12" font-weight="700"> </text><text x="495.77" y="666.436" fill="#666" font-size="12" textLength="34.857" font-weight="700">idarə</text><text x="530.627" y="666.436" fill="#666" font-size="12" font-weight="700"> </text><text x="534.805" y="666.436" fill="#666" font-size="12" textLength="26.76" font-weight="700">edir</text></g><!--link budget_svc to db_adapter--><g class="link" data-entity-1="ent0008" data-entity-2="ent0011" id="lnk22" data-source-line="1803" data-link-type="dependency"><path d="M577.55,616.597 C575.25,626.797 573.27,637.277 572,647.297 C569.59,666.317 569.074,679.192 569.724,698.032" style="stroke:#666;stroke-width:1;" fill="none" id="budget_svc-to-db_adapter"/><polygon points="570,706.027,572.722,697.928,566.726,698.135,570,706.027" fill="#666" style="stroke:#666;stroke-width:1;stroke-linejoin:miter;stroke-miterlimit:10;"/><text x="573" y="666.436" fill="#666" font-size="12" textLength="41.531" font-weight="700">Büdcə</text><text x="614.531" y="666.436" fill="#666" font-size="12" font-weight="700"> </text><text x="618.709" y="666.436" fill="#666" font-size="12" textLength="60.686" font-weight="700">cədvəlini</text><text x="679.395" y="666.436" fill="#666" font-size="12" font-weight="700"> </text><text x="683.572" y="666.436" fill="#666" font-size="12" textLength="84.129" font-weight="700">oxuyur/yazır</text></g><!--link card_svc to db_adapter--><g class="link" data-entity-1="ent0009" data-entity-2="ent0011" id="lnk23" data-source-line="1803" data-link-type="dependency"><path d="M1010,617.557 C985.25,638.987 955.96,661.057 926,676.297 C849.8,715.077 763.376,736.383 691.716,749.153" style="stroke:#666;stroke-width:1;" fill="none" id="card_svc-to-db_adapter"/><polygon points="683.84,750.557,692.242,752.107,691.19,746.2,683.84,750.557" fill="#666" style="stroke:#666;stroke-width:1;stroke-linejoin:miter;stroke-miterlimit:10;"/><text x="973" y="666.436" fill="#666" font-size="12" textLength="29.051" font-weight="700">Kart</text><text x="1002.051" y="666.436" fill="#666" font-size="12" font-weight="700"> </text><text x="1006.229" y="666.436" fill="#666" font-size="12" textLength="94.535" font-weight="700">məlumatlarını</text><text x="1100.764" y="666.436" fill="#666" font-size="12" font-weight="700"> </text><text x="1104.941" y="666.436" fill="#666" font-size="12" textLength="34.857" font-weight="700">idarə</text><text x="1139.799" y="666.436" fill="#666" font-size="12" font-weight="700"> </text><text x="1143.977" y="666.436" fill="#666" font-size="12" textLength="26.76" font-weight="700">edir</text></g><!--link history_svc to db_adapter--><g class="link" data-entity-1="ent0010" data-entity-2="ent0011" id="lnk24" data-source-line="1803" data-link-type="dependency"><path d="M814.27,617.597 C803.53,638.407 789.49,660.087 772,676.297 C746.95,699.517 722.155,714.292 691.135,727.802" style="stroke:#666;stroke-width:1;" fill="none" id="history_svc-to-db_adapter"/><polygon points="683.8,730.997,692.332,730.553,689.937,725.052,683.8,730.997" fill="#666" style="stroke:#666;stroke-width:1;stroke-linejoin:miter;stroke-miterlimit:10;"/><text x="796" y="659.436" fill="#666" font-size="12" textLength="49.307" font-weight="700">Tarixçə</text><text x="845.307" y="659.436" fill="#666" font-size="12" font-weight="700"> </text><text x="849.484" y="659.436" fill="#666" font-size="12" textLength="68.08" font-weight="700">qeydlərini</text><text x="814.718" y="673.404" fill="#666" font-size="12" textLength="84.129" font-weight="700">oxuyur/yazır</text></g><!--link card_svc to payment_gateway--><g class="link" data-entity-1="ent0009" data-entity-2="ent0012" id="lnk25" data-source-line="1803" data-link-type="dependency"><path d="M1150.33,617.777 C1160.67,627.627 1171.15,637.687 1181,647.297 C1205.68,671.387 1227.201,693.003 1249.121,715.293" style="stroke:#666;stroke-width:1;" fill="none" id="card_svc-to-payment_gateway"/><polygon points="1254.73,720.997,1251.26,713.189,1246.982,717.396,1254.73,720.997" fill="#666" style="stroke:#666;stroke-width:1;stroke-linejoin:miter;stroke-miterlimit:10;"/><text x="1211" y="659.436" fill="#666" font-size="12" textLength="29.051" font-weight="700">Kart</text><text x="1240.051" y="659.436" fill="#666" font-size="12" font-weight="700"> </text><text x="1244.229" y="659.436" fill="#666" font-size="12" textLength="86.76" font-weight="700">doğruluğunu</text><text x="1330.988" y="659.436" fill="#666" font-size="12" font-weight="700"> </text><text x="1335.166" y="659.436" fill="#666" font-size="12" textLength="53.871" font-weight="700">yoxlayır</text><text x="1276.068" y="673.404" fill="#666" font-size="12" textLength="47.9" font-style="italic">[HTTPS]</text></g><!--link db_adapter to database--><g class="link" data-entity-1="ent0011" data-entity-2="ent0003" id="lnk26" data-source-line="1803" data-link-type="dependency"><path d="M575,826.737 C575,855.717 575,882.067 575,909.087" style="stroke:#666;stroke-width:1;" fill="none" id="db_adapter-to-database"/><polygon points="575,917.087,578,909.087,572,909.087,575,917.087" fill="#666" style="stroke:#666;stroke-width:1;stroke-linejoin:miter;stroke-miterlimit:10;"/><text x="576" y="870.546" fill="#666" font-size="12" textLength="26.49" font-weight="700">SQL</text><text x="602.49" y="870.546" fill="#666" font-size="12" font-weight="700"> </text><text x="606.668" y="870.546" fill="#666" font-size="12" textLength="60.68" font-weight="700">sorğuları</text><text x="667.348" y="870.546" fill="#666" font-size="12" font-weight="700"> </text><text x="671.525" y="870.546" fill="#666" font-size="12" textLength="58.055" font-weight="700">göndərir</text><text x="636.636" y="884.514" fill="#666" font-size="12" textLength="32.309" font-style="italic">[TCP]</text></g><g class="legend" data-source-line="66"><text x="1262.749" y="1062.589" fill="#000" font-size="14" textLength="57.921" font-weight="700">Legend</text><text x="1320.67" y="1062.589" fill="#FFF" font-size="14"> </text><rect x="1262.749" y="1065.891" width="150.65" height="16.297" fill="#08427B" style="stroke:none;"/><text x="1267.199" y="1078.886" fill="#FFF" font-size="14" textLength="47.988">person</text><rect x="1262.749" y="1082.188" width="150.65" height="16.297" fill="#1168BD" style="stroke:none;"/><text x="1267.199" y="1095.183" fill="#FFF" font-size="14" textLength="50.613">system</text><rect x="1262.749" y="1098.485" width="150.65" height="16.297" fill="#438DD5" style="stroke:none;"/><text x="1267.199" y="1111.48" fill="#FFF" font-size="14" textLength="66.336">container</text><rect x="1262.749" y="1114.782" width="150.65" height="16.297" fill="#85BBF0" style="stroke:none;"/><text x="1267.199" y="1127.777" fill="#FFF" font-size="14" textLength="79.201">component</text><rect x="1262.749" y="1131.079" width="150.65" height="16.297" fill="#686868" style="stroke:none;"/><text x="1267.199" y="1144.074" fill="#FFF" font-size="14" textLength="110.537">external person</text><rect x="1262.749" y="1147.376" width="150.65" height="16.297" fill="#999" style="stroke:none;"/><text x="1267.199" y="1160.371" fill="#FFF" font-size="14" textLength="113.162">external system</text><rect x="1262.749" y="1163.673" width="150.65" height="16.297" fill="#B3B3B3" style="stroke:none;"/><text x="1267.199" y="1176.668" fill="#FFF" font-size="14" textLength="128.885">external container</text><rect x="1262.749" y="1179.969" width="150.65" height="16.297" fill="#CCC" style="stroke:none;"/><text x="1267.199" y="1192.964" fill="#FFF" font-size="14" textLength="141.75">external component</text><line x1="1262.749" y1="1049.594" x2="1413.399" y2="1049.594" style="stroke:#FFF;stroke-width:1;"/><line x1="1262.749" y1="1065.891" x2="1413.399" y2="1065.891" style="stroke:#FFF;stroke-width:1;"/><line x1="1262.749" y1="1082.188" x2="1413.399" y2="1082.188" style="stroke:#FFF;stroke-width:1;"/><line x1="1262.749" y1="1098.485" x2="1413.399" y2="1098.485" style="stroke:#FFF;stroke-width:1;"/><line x1="1262.749" y1="1114.782" x2="1413.399" y2="1114.782" style="stroke:#FFF;stroke-width:1;"/><line x1="1262.749" y1="1131.079" x2="1413.399" y2="1131.079" style="stroke:#FFF;stroke-width:1;"/><line x1="1262.749" y1="1147.376" x2="1413.399" y2="1147.376" style="stroke:#FFF;stroke-width:1;"/><line x1="1262.749" y1="1163.673" x2="1413.399" y2="1163.673" style="stroke:#FFF;stroke-width:1;"/><line x1="1262.749" y1="1179.969" x2="1413.399" y2="1179.969" style="stroke:#FFF;stroke-width:1;"/><line x1="1262.749" y1="1196.266" x2="1413.399" y2="1196.266" style="stroke:#FFF;stroke-width:1;"/><line x1="1262.749" y1="1049.594" x2="1262.749" y2="1196.266" style="stroke:#FFF;stroke-width:1;"/><line x1="1413.399" y1="1049.594" x2="1413.399" y2="1196.266" style="stroke:#FFF;stroke-width:1;"/></g><?plantuml-src bLRBKY995Dtp5NTOJ404oc9wDJj5ezK6fGNRcHLngp8RCiXwa9L5KtRCRqm4AvPknysit84B_cfkPZse0krf3GmXkOzJvzvpqb-4xygOSPXe7KQ_jziAlnsFXPx4JXnnvGQ-vhu-TWEl7KhqTUp9eqWpAPnsvyDHtnpTzRfj3oFD5HsDEe4N1hx92IcsLkkU_7bpDnpTNmulHjtpZ-VNPurchQQ5bXoAM3WJE5ReGQFp0RfypYNyreGZk3qV3E6aVma3hkPSrMeTmeF2vwhnLLbeh0NrNk082L-u0yFjKZjY1dUNTJg_6FQwBUWC1Ysu6fW3gdIKR9TmCHps1x1-VjWkbV3PTkb35AZDAfQeOBp-rnmfeOxhpL93bnfIZGxzWQl0WJy4ywYTC8Ml0yQFJ00qxWCrvQffJa_NpypTBgKf1f7m5nGWyMN5Da_Amna1M3-kdttxW1xN0QFscoT_ymJhHzoiA8fU5H1dJeEXHWSZJlM_S2Mek6yQm2a-OBHvCdrl5Bh4RXlwGQJ7YWy-TyrnZw347chR1I9SI4oo1hL1GlFpHgT1x3DKIGD3COeivvIuDmKQKeu7yeHclGdVQq0_nKmRAeYrpJzVX8f74TpQ0_WLJc8zWPvWJF9lg7Zz8CR2HVMoKh7UCGPpcjtL_H1qCEK-904z0R7riaf94mI40ZXB9rS5WzHo5CrTAhpv9zBYAzACru-2MB9eojCyTLKIQi99lUe72JEUC94ag3TFBHWB9LvM5fZUBYTo_JpTBYFn8CKKjakgA6reCLZXAdm3OHGx6S0J9_PDvhI2wWhdE72L86I6VnL8cH9LXDj58rvG8H4cFRCFBL2SuLGRL1Pc9AJmFVFH5p-cp8dPcEiCKxRBFuSe3vR28vrRLCBman0wqyi2MT2vQzRNo8zgElH-inBGY4BgteG9Zz2Hk2-SR6EhK5rKB0Ew_jlesGpb4wfirtyAz2wneiKMJAaEi613ooZHmsAMvY68Tvnd4Y_pIPyEKKv4f0EL700TeXABzQCTqJkXwbqgjNV80nAa1NWWbYm-KThS95tI6HFU6nDdpWWPXgbgNtCNE35V1ohUsSpPAKae78Ch1PMmqwTOCAdW2ENGsD3IDAE3MQpY51XvqivpNz76NuKddIzq8yJ4e-gZCMfoZAH2GLy5SqmOeOL6Bt2drde_LMTce6TkQ-tkbilI1L8OLNeljEcskBakeolT2PHjajFBeAAGGRgdWeWID8Gtqsr-th9aIn-jbRG_v_QoJqz2HSmyYA02HbxcDUzupNv-LEDLkR-tI4c8TWJlpQzAf136_t5XQ-ouhEnnrRszyYLeIkMLpLMOWIdOhDIfscpPEhEqCe6Lp9nC-cN6B8nKWqMSnAgTIZLVgeAyIhebyW3tOVyATvKAEnxDvPMRrJw4FGo7cYkBAYRI_3YzWorrkNmoCEN-fNzPzcHVLeR1sUdNc_y1?></g></svg>