<svg xmlns="http://www.w3.org/2000/svg" xmlns:xlink="http://www.w3.org/1999/xlink" version="1.1" data-diagram-type="DESCRIPTION" style="width:1428px;height:1222px;background:#FFFFFF;" width="1428px" height="1222px" viewBox="0 0 1428 1222" zoomAndPan="magnify" preserveAspectRatio="none" contentStyleType="text/css"><?plantuml 1.2026.7beta8?><defs/><g font-family="sans-serif" lengthAdjust="spacing"><g class="title" data-source-line="5"><text x="508.424" y="22.995" fill="#000" font-size="14" textLength="404.551" font-weight="700">Component Diagram (C4 Level 3) - REST API Server</text></g><!--cluster api_server--><g class="cluster" data-qualified-name="api_server" id="ent0004" data-source-line="1690"><rect x="7" y="220.787" width="1173" height="621.62" fill="none" style="stroke:#444;stroke-width:1;stroke-dasharray:7,7;"/><text x="420.09" y="237.638" fill="#444" font-size="16" textLength="346.82" font-weight="700">REST API Server (Container Boundary)</text><text x="563.772" y="252.551" fill="#444" font-size="12" textLength="59.455" font-weight="700">[system]</text></g><!--entity router--><g class="entity" data-qualified-name="api_server.router" id="ent0005" data-source-line="83"><rect x="453.68" y="271.787" width="214.633" height="120.109" fill="#85BBF0" style="stroke:#78A8D8;stroke-width:0.5;"/><text x="482.657" y="296.638" fill="#000" font-size="16" textLength="70.492" font-weight="700">Express</text><text x="553.149" y="296.638" fill="#000" font-size="16" font-weight="700"> </text><text x="558.719" y="296.638" fill="#000" font-size="16" textLength="61.094" font-weight="700">Router</text><text x="619.813" y="296.638" fill="#000" font-size="16" font-weight="700"> </text><text x="625.383" y="296.638" fill="#000" font-size="16" font-weight="700">&amp;</text><text x="484.321" y="315.263" fill="#000" font-size="16" textLength="42.813" font-weight="700">Auth</text><text x="527.133" y="315.263" fill="#000" font-size="16" font-weight="700"> </text><text x="532.703" y="315.263" fill="#000" font-size="16" textLength="104.969" font-weight="700">Middleware</text><text x="510.694" y="330.176" fill="#000" font-size="12" textLength="51.803" font-style="italic">[Express</text><text x="562.496" y="330.176" fill="#000" font-size="12" font-style="italic"> </text><text x="566.311" y="330.176" fill="#000" font-size="12" textLength="44.988" font-style="italic">Router]</text><text x="558.771" y="346.001" fill="#000" font-size="14"> </text><text x="477.666" y="362.298" fill="#000" font-size="14" textLength="114.338">Marşrutlaşdırma</text><text x="592.004" y="362.298" fill="#000" font-size="14"> </text><text x="596.454" y="362.298" fill="#000" font-size="14" textLength="16.898">və</text><text x="613.353" y="362.298" fill="#000" font-size="14"> </text><text x="617.803" y="362.298" fill="#000" font-size="14" textLength="26.523">JWT</text><text x="463.68" y="378.594" fill="#000" font-size="14" textLength="39.648">token</text><text x="503.328" y="378.594" fill="#000" font-size="14"> </text><text x="507.779" y="378.594" fill="#000" font-size="14" textLength="74.313">yoxlanışını</text><text x="582.092" y="378.594" fill="#000" font-size="14"> </text><text x="586.542" y="378.594" fill="#000" font-size="14" textLength="35.725">idarə</text><text x="622.267" y="378.594" fill="#000" font-size="14"> </text><text x="626.717" y="378.594" fill="#000" font-size="14" textLength="31.596">edir.</text></g><!--entity auth_svc--><g class="entity" data-qualified-name="api_server.auth_svc" id="ent0006" data-source-line="83"><rect x="23.22" y="480.897" width="199.553" height="136.406" fill="#85BBF0" style="stroke:#78A8D8;stroke-width:0.5;"/><text x="51.278" y="505.748" fill="#000" font-size="16" textLength="83.641" font-weight="700">İstifadəçi</text><text x="134.918" y="505.748" fill="#000" font-size="16" font-weight="700"> </text><text x="140.489" y="505.748" fill="#000" font-size="16" font-weight="700">/</text><text x="146.332" y="505.748" fill="#000" font-size="16" font-weight="700"> </text><text x="151.903" y="505.748" fill="#000" font-size="16" textLength="42.813" font-weight="700">Auth</text><text x="88.032" y="524.373" fill="#000" font-size="16" textLength="69.93" font-weight="700">Xidməti</text><text x="78.861" y="539.286" fill="#000" font-size="12" textLength="43.869" font-style="italic">[Bcrypt</text><text x="122.73" y="539.286" fill="#000" font-size="12" font-style="italic"> </text><text x="126.544" y="539.286" fill="#000" font-size="12" font-style="italic">&amp;</text><text x="135.902" y="539.286" fill="#000" font-size="12" font-style="italic"> </text><text x="139.716" y="539.286" fill="#000" font-size="12" textLength="27.416" font-style="italic">JWT]</text><text x="120.771" y="555.111" fill="#000" font-size="14"> </text><text x="33.22" y="571.408" fill="#000" font-size="14" textLength="63.396">İstifadəçi</text><text x="96.616" y="571.408" fill="#000" font-size="14"> </text><text x="101.067" y="571.408" fill="#000" font-size="14" textLength="77.54">qeydiyyatı,</text><text x="178.607" y="571.408" fill="#000" font-size="14"> </text><text x="183.057" y="571.408" fill="#000" font-size="14" textLength="29.716">giriş</text><text x="68.883" y="587.704" fill="#000" font-size="14" textLength="16.898">və</text><text x="85.782" y="587.704" fill="#000" font-size="14"> </text><text x="90.232" y="587.704" fill="#000" font-size="14" textLength="86.878">təhlükəsizlik</text><text x="37.708" y="604.001" fill="#000" font-size="14" textLength="104.159">əməliyyatlarını</text><text x="141.867" y="604.001" fill="#000" font-size="14"> </text><text x="146.317" y="604.001" fill="#000" font-size="14" textLength="25.922">icra</text><text x="172.239" y="604.001" fill="#000" font-size="14"> </text><text x="176.689" y="604.001" fill="#000" font-size="14" textLength="31.596">edir.</text></g><!--entity sub_svc--><g class="entity" data-qualified-name="api_server.sub_svc" id="ent0007" data-source-line="83"><rect x="258.05" y="490.207" width="201.897" height="117.781" fill="#85BBF0" style="stroke:#78A8D8;stroke-width:0.5;"/><text x="281.71" y="515.058" fill="#000" font-size="16" textLength="79.078" font-weight="700">Abunəlik</text><text x="360.788" y="515.058" fill="#000" font-size="16" font-weight="700"> </text><text x="366.358" y="515.058" fill="#000" font-size="16" textLength="69.93" font-weight="700">Xidməti</text><text x="292.688" y="529.971" fill="#000" font-size="12" textLength="64.834" font-style="italic">[JavaScript</text><text x="357.522" y="529.971" fill="#000" font-size="12" font-style="italic"> </text><text x="361.337" y="529.971" fill="#000" font-size="12" textLength="63.973" font-style="italic">Controller]</text><text x="356.774" y="545.796" fill="#000" font-size="14"> </text><text x="268.05" y="562.093" fill="#000" font-size="14" textLength="91.731">Abunəliklərin</text><text x="359.781" y="562.093" fill="#000" font-size="14"> </text><text x="364.232" y="562.093" fill="#000" font-size="14" textLength="85.716">yaradılması,</text><text x="276.468" y="578.389" fill="#000" font-size="14" textLength="65.229">redaktəsi</text><text x="341.697" y="578.389" fill="#000" font-size="14"> </text><text x="346.147" y="578.389" fill="#000" font-size="14" textLength="16.898">və</text><text x="363.046" y="578.389" fill="#000" font-size="14"> </text><text x="367.496" y="578.389" fill="#000" font-size="14" textLength="74.033">silinməsini</text><text x="323.113" y="594.686" fill="#000" font-size="14" textLength="35.725">idarə</text><text x="358.838" y="594.686" fill="#000" font-size="14"> </text><text x="363.288" y="594.686" fill="#000" font-size="14" textLength="31.596">edir.</text></g><!--entity budget_svc--><g class="entity" data-qualified-name="api_server.budget_svc" id="ent0008" data-source-line="83"><rect x="494.49" y="498.357" width="205.028" height="101.484" fill="#85BBF0" style="stroke:#78A8D8;stroke-width:0.5;"/><text x="531.567" y="523.208" fill="#000" font-size="16" textLength="55.375" font-weight="700">Büdcə</text><text x="586.942" y="523.208" fill="#000" font-size="16" font-weight="700"> </text><text x="592.512" y="523.208" fill="#000" font-size="16" textLength="69.93" font-weight="700">Xidməti</text><text x="530.694" y="538.121" fill="#000" font-size="12" textLength="64.834" font-style="italic">[JavaScript</text><text x="595.528" y="538.121" fill="#000" font-size="12" font-style="italic"> </text><text x="599.342" y="538.121" fill="#000" font-size="12" textLength="63.973" font-style="italic">Controller]</text><text x="594.779" y="553.946" fill="#000" font-size="14"> </text><text x="504.49" y="570.243" fill="#000" font-size="14" textLength="43.675">Büdcə</text><text x="548.165" y="570.243" fill="#000" font-size="14"> </text><text x="552.615" y="570.243" fill="#000" font-size="14" textLength="65.707">limitlərini</text><text x="618.322" y="570.243" fill="#000" font-size="14"> </text><text x="622.772" y="570.243" fill="#000" font-size="14" textLength="35.15">təyin</text><text x="657.923" y="570.243" fill="#000" font-size="14"> </text><text x="662.373" y="570.243" fill="#000" font-size="14" textLength="27.146">edir</text><text x="512.563" y="586.539" fill="#000" font-size="14" textLength="16.898">və</text><text x="529.462" y="586.539" fill="#000" font-size="14"> </text><text x="533.912" y="586.539" fill="#000" font-size="14" textLength="39.156">spent</text><text x="573.068" y="586.539" fill="#000" font-size="14"> </text><text x="577.518" y="586.539" fill="#000" font-size="14" textLength="103.927">sinxronlaşdırır.</text></g><!--entity card_svc--><g class="entity" data-qualified-name="api_server.card_svc" id="ent0009" data-source-line="83"><rect x="974.04" y="480.897" width="189.928" height="136.406" fill="#85BBF0" style="stroke:#78A8D8;stroke-width:0.5;"/><text x="1000.871" y="505.748" fill="#000" font-size="16" textLength="62.305" font-weight="700">Ödəniş</text><text x="1063.176" y="505.748" fill="#000" font-size="16" font-weight="700"> </text><text x="1068.746" y="505.748" fill="#000" font-size="16" textLength="68.391" font-weight="700">Kartları</text><text x="1034.039" y="524.373" fill="#000" font-size="16" textLength="69.93" font-weight="700">Xidməti</text><text x="1002.693" y="539.286" fill="#000" font-size="12" textLength="64.834" font-style="italic">[JavaScript</text><text x="1067.527" y="539.286" fill="#000" font-size="12" font-style="italic"> </text><text x="1071.342" y="539.286" fill="#000" font-size="12" textLength="63.973" font-style="italic">Controller]</text><text x="1066.779" y="555.111" fill="#000" font-size="14"> </text><text x="984.04" y="571.408" fill="#000" font-size="14" textLength="48.576">Ödəniş</text><text x="1032.616" y="571.408" fill="#000" font-size="14"> </text><text x="1037.066" y="571.408" fill="#000" font-size="14" textLength="84.52">metodlarını,</text><text x="1121.586" y="571.408" fill="#000" font-size="14"> </text><text x="1126.036" y="571.408" fill="#000" font-size="14" textLength="27.932">kart</text><text x="1003.064" y="587.704" fill="#000" font-size="14" textLength="110.53">doğrulamalarını</text><text x="1113.595" y="587.704" fill="#000" font-size="14"> </text><text x="1118.045" y="587.704" fill="#000" font-size="14" textLength="16.898">və</text><text x="994.448" y="604.001" fill="#000" font-size="14" textLength="72.892">əlavələrini</text><text x="1067.339" y="604.001" fill="#000" font-size="14"> </text><text x="1071.79" y="604.001" fill="#000" font-size="14" textLength="35.725">idarə</text><text x="1107.514" y="604.001" fill="#000" font-size="14"> </text><text x="1111.964" y="604.001" fill="#000" font-size="14" textLength="31.596">edir.</text></g><!--entity history_svc--><g class="entity" data-qualified-name="api_server.history_svc" id="ent0010" data-source-line="83"><rect x="734.53" y="489.047" width="204.939" height="120.109" fill="#85BBF0" style="stroke:#78A8D8;stroke-width:0.5;"/><text x="762.687" y="513.898" fill="#000" font-size="16" textLength="62.305" font-weight="700">Ödəniş</text><text x="824.992" y="513.898" fill="#000" font-size="16" font-weight="700"> </text><text x="830.562" y="513.898" fill="#000" font-size="16" textLength="80.75" font-weight="700">Tarixçəsi</text><text x="802.035" y="532.523" fill="#000" font-size="16" textLength="69.93" font-weight="700">Xidməti</text><text x="770.689" y="547.436" fill="#000" font-size="12" textLength="64.834" font-style="italic">[JavaScript</text><text x="835.523" y="547.436" fill="#000" font-size="12" font-style="italic"> </text><text x="839.338" y="547.436" fill="#000" font-size="12" textLength="63.973" font-style="italic">Controller]</text><text x="834.775" y="563.261" fill="#000" font-size="14"> </text><text x="744.53" y="579.558" fill="#000" font-size="14" textLength="48.576">Ödəniş</text><text x="793.106" y="579.558" fill="#000" font-size="14"> </text><text x="797.556" y="579.558" fill="#000" font-size="14" textLength="72.256">tarixçəsini</text><text x="869.812" y="579.558" fill="#000" font-size="14"> </text><text x="874.262" y="579.558" fill="#000" font-size="14" textLength="33.858">yazır</text><text x="908.121" y="579.558" fill="#000" font-size="14"> </text><text x="912.571" y="579.558" fill="#000" font-size="14" textLength="16.898">və</text><text x="794.275" y="595.854" fill="#000" font-size="14" textLength="49.403">təqdim</text><text x="843.678" y="595.854" fill="#000" font-size="14"> </text><text x="848.129" y="595.854" fill="#000" font-size="14" textLength="31.596">edir.</text></g><!--entity db_adapter--><g class="entity" data-qualified-name="api_server.db_adapter" id="ent0011" data-source-line="83"><rect x="487.55" y="706.297" width="216.902" height="120.109" fill="#85BBF0" style="stroke:#78A8D8;stroke-width:0.5;"/><text x="519.88" y="731.148" fill="#000" font-size="16" textLength="88.563" font-weight="700">Verilənlər</text><text x="608.443" y="731.148" fill="#000" font-size="16" font-weight="700"> </text><text x="614.013" y="731.148" fill="#000" font-size="16" textLength="58.109" font-weight="700">Bazası</text><text x="553.997" y="749.773" fill="#000" font-size="16" textLength="84.008" font-weight="700">Adaptoru</text><text x="531.22" y="764.686" fill="#000" font-size="12" textLength="61.201" font-style="italic">[OracleDB</text><text x="592.421" y="764.686" fill="#000" font-size="12" font-style="italic"> </text><text x="596.236" y="764.686" fill="#000" font-size="12" font-style="italic">/</text><text x="600.279" y="764.686" fill="#000" font-size="12" font-style="italic"> </text><text x="604.093" y="764.686" fill="#000" font-size="12" textLength="15.234" font-style="italic">pg</text><text x="619.327" y="764.686" fill="#000" font-size="12" font-style="italic"> </text><text x="623.142" y="764.686" fill="#000" font-size="12" textLength="37.641" font-style="italic">client]</text><text x="593.776" y="780.511" fill="#000" font-size="14"> </text><text x="497.55" y="796.808" fill="#000" font-size="14" textLength="34.111">Baza</text><text x="531.661" y="796.808" fill="#000" font-size="14"> </text><text x="536.112" y="796.808" fill="#000" font-size="14" textLength="16.393">ilə</text><text x="552.504" y="796.808" fill="#000" font-size="14"> </text><text x="556.954" y="796.808" fill="#000" font-size="14" textLength="51.871">birbaşa</text><text x="608.825" y="796.808" fill="#000" font-size="14"> </text><text x="613.276" y="796.808" fill="#000" font-size="14" textLength="38.582">əlaqə</text><text x="651.858" y="796.808" fill="#000" font-size="14"> </text><text x="656.308" y="796.808" fill="#000" font-size="14" textLength="38.145">qurur</text><text x="498.914" y="813.104" fill="#000" font-size="14" textLength="16.898">və</text><text x="515.812" y="813.104" fill="#000" font-size="14"> </text><text x="520.262" y="813.104" fill="#000" font-size="14" textLength="27.706">SQL</text><text x="547.968" y="813.104" fill="#000" font-size="14"> </text><text x="552.419" y="813.104" fill="#000" font-size="14" textLength="74.252">sorğularını</text><text x="626.671" y="813.104" fill="#000" font-size="14"> </text><text x="631.121" y="813.104" fill="#000" font-size="14" textLength="25.922">icra</text><text x="657.043" y="813.104" fill="#000" font-size="14"> </text><text x="661.493" y="813.104" fill="#000" font-size="14" textLength="31.596">edir.</text></g><!--entity frontend--><g class="entity" data-qualified-name="frontend" id="ent0001" data-source-line="76"><rect x="462.26" y="44.297" width="197.484" height="101.484" fill="#438DD5" style="stroke:#3C7FC0;stroke-width:0.5;"/><text x="472.26" y="69.148" fill="#FFF" font-size="16" textLength="49.336" font-weight="700">Mobil</text><text x="521.596" y="69.148" fill="#FFF" font-size="16" font-weight="700"> </text><text x="527.166" y="69.148" fill="#FFF" font-size="16" textLength="34.688" font-weight="700">Veb</text><text x="561.854" y="69.148" fill="#FFF" font-size="16" font-weight="700"> </text><text x="567.424" y="69.148" fill="#FFF" font-size="16" textLength="57.805" font-weight="700">Tətbiq</text><text x="625.229" y="69.148" fill="#FFF" font-size="16" font-weight="700"> </text><text x="630.799" y="69.148" fill="#FFF" font-size="16" textLength="18.945" font-weight="700">UI</text><text x="514.611" y="84.061" fill="#FFF" font-size="12" textLength="41.889" font-style="italic">[HTML,</text><text x="556.499" y="84.061" fill="#FFF" font-size="12" font-style="italic"> </text><text x="560.314" y="84.061" fill="#FFF" font-size="12" textLength="27.428" font-style="italic">CSS,</text><text x="587.741" y="84.061" fill="#FFF" font-size="12" font-style="italic"> </text><text x="591.556" y="84.061" fill="#FFF" font-size="12" textLength="15.838" font-style="italic">JS]</text><text x="558.777" y="99.886" fill="#FFF" font-size="14"> </text><text x="477.159" y="116.183" fill="#FFF" font-size="14" textLength="44.099">API-yə</text><text x="521.258" y="116.183" fill="#FFF" font-size="14"> </text><text x="525.708" y="116.183" fill="#FFF" font-size="14" textLength="44.96">HTTPS</text><text x="570.668" y="116.183" fill="#FFF" font-size="14"> </text><text x="575.118" y="116.183" fill="#FFF" font-size="14" textLength="69.727">üzərindən</text><text x="498.139" y="132.479" fill="#FFF" font-size="14" textLength="57.6">sorğular</text><text x="555.739" y="132.479" fill="#FFF" font-size="14"> </text><text x="560.189" y="132.479" fill="#FFF" font-size="14" textLength="63.677">göndərir.</text></g><!--entity cron--><g class="entity" data-qualified-name="cron" id="ent0002" data-source-line="76"><rect x="1195.61" y="281.097" width="218.789" height="101.484" fill="#438DD5" style="stroke:#3C7FC0;stroke-width:0.5;"/><text x="1229.262" y="305.948" fill="#FFF" font-size="16" textLength="42.016" font-weight="700">Cron</text><text x="1271.278" y="305.948" fill="#FFF" font-size="16" font-weight="700"> </text><text x="1276.848" y="305.948" fill="#FFF" font-size="16" textLength="28.398" font-weight="700">Job</text><text x="1305.247" y="305.948" fill="#FFF" font-size="16" font-weight="700"> </text><text x="1310.817" y="305.948" fill="#FFF" font-size="16" textLength="69.93" font-weight="700">Xidməti</text><text x="1240.967" y="320.861" fill="#FFF" font-size="12" textLength="66.809" font-style="italic">[Node-cron</text><text x="1307.776" y="320.861" fill="#FFF" font-size="12" font-style="italic"> </text><text x="1311.59" y="320.861" fill="#FFF" font-size="12" textLength="57.451" font-style="italic">(Worker)]</text><text x="1302.779" y="336.686" fill="#FFF" font-size="14"> </text><text x="1209.401" y="352.983" fill="#FFF" font-size="14" textLength="65.823">Büdcələri</text><text x="1275.224" y="352.983" fill="#FFF" font-size="14"> </text><text x="1279.674" y="352.983" fill="#FFF" font-size="14" textLength="120.935">sinxronlaşdırmaq</text><text x="1205.61" y="369.279" fill="#FFF" font-size="14" textLength="34.316">üçün</text><text x="1239.926" y="369.279" fill="#FFF" font-size="14"> </text><text x="1244.377" y="369.279" fill="#FFF" font-size="14" textLength="22.148">API</text><text x="1266.525" y="369.279" fill="#FFF" font-size="14"> </text><text x="1270.975" y="369.279" fill="#FFF" font-size="14" textLength="80.069">metodlarını</text><text x="1351.045" y="369.279" fill="#FFF" font-size="14"> </text><text x="1355.495" y="369.279" fill="#FFF" font-size="14" textLength="48.904">çağırır.</text></g><!--entity database--><g class="entity" data-qualified-name="database" id="ent0003" data-source-line="80"><path d="M509.88,927.407 C509.88,917.407 596.001,917.407 596.001,917.407 C596.001,917.407 682.122,917.407 682.122,927.407 L682.122,1001.594 C682.122,1011.594 596.001,1011.594 596.001,1011.594 C596.001,1011.594 509.88,1011.594 509.88,1001.594 L509.88,927.407" style="stroke:#3C7FC0;stroke-width:0.5;" fill="#438DD5"/><path d="M509.88,927.407 C509.88,937.407 596.001,937.407 596.001,937.407 C596.001,937.407 682.122,937.407 682.122,927.407" style="stroke:#3C7FC0;stroke-width:0.5;" fill="none"/><text x="519.88" y="956.258" fill="#FFF" font-size="16" textLength="88.563" font-weight="700">Verilənlər</text><text x="608.443" y="956.258" fill="#FFF" font-size="16" font-weight="700"> </text><text x="614.013" y="956.258" fill="#FFF" font-size="16" textLength="58.109" font-weight="700">Bazası</text><text x="531.352" y="971.171" fill="#FFF" font-size="12" textLength="43.729" font-style="italic">[Oracle</text><text x="575.08" y="971.171" fill="#FFF" font-size="12" font-style="italic"> </text><text x="578.895" y="971.171" fill="#FFF" font-size="12" font-style="italic">/</text><text x="582.938" y="971.171" fill="#FFF" font-size="12" font-style="italic"> </text><text x="586.752" y="971.171" fill="#FFF" font-size="12" textLength="73.898" font-style="italic">PostgreSQL]</text><text x="593.776" y="986.996" fill="#FFF" font-size="14"> </text><text x="522.634" y="1003.293" fill="#FFF" font-size="14" textLength="83.275">Məlumatları</text><text x="605.91" y="1003.293" fill="#FFF" font-size="14"> </text><text x="610.36" y="1003.293" fill="#FFF" font-size="14" textLength="59.008">saxlayır.</text></g><!--entity payment_gateway--><g class="entity" data-qualified-name="payment_gateway" id="ent0012" data-source-line="419"><rect x="1196.09" y="721.437" width="185.82" height="89.844" fill="#999" style="stroke:#8A8A8A;stroke-width:0.5;"/><text x="1206.09" y="746.288" fill="#FFF" font-size="16" textLength="62.305" font-weight="700">Ödəniş</text><text x="1268.395" y="746.288" fill="#FFF" font-size="16" font-weight="700"> </text><text x="1273.965" y="746.288" fill="#FFF" font-size="16" textLength="97.945" font-weight="700">Provayderi</text><text x="1258.168" y="764.913" fill="#FFF" font-size="16" textLength="61.664" font-weight="700">(Mock)</text><text x="1286.775" y="781.682" fill="#FFF" font-size="14"> </text><text x="1207.246" y="797.979" fill="#FFF" font-size="14" textLength="29.005">Kart</text><text x="1236.251" y="797.979" fill="#FFF" font-size="14"> </text><text x="1240.701" y="797.979" fill="#FFF" font-size="14" textLength="86.837">doğrulaması</text><text x="1327.538" y="797.979" fill="#FFF" font-size="14"> </text><text x="1331.988" y="797.979" fill="#FFF" font-size="14" textLength="38.767">üçün.</text></g><!--link router to sub_svc--><!--link router to sub_svc--><g class="link" data-entity-1="ent0005" data-entity-2="ent0007" id="lnk23" data-source-line="1803" data-link-type="dependency"><path d="M453.36,355.007 C417.11,368.157 380.46,388.987 359,421.897 C346.14,441.627 343.407,459.065 345.337,481.915" style="stroke:#666;stroke-width:1;" fill="none" id="router-to-sub_svc-1"/><polygon points="346.01,489.887,348.326,481.663,342.347,482.168,346.01,489.887" fill="#666" style="stroke:#666;stroke-width:1;stroke-linejoin:miter;stroke-miterlimit:10;"/><text x="360" y="434.036" fill="#666" font-size="12" textLength="59.309" font-weight="700">Abunəlik</text><text x="419.309" y="434.036" fill="#666" font-size="12" font-weight="700"> </text><text x="423.486" y="434.036" fill="#666" font-size="12" textLength="101.385" font-weight="700">əməliyyatlarını</text><text x="405.407" y="448.004" fill="#666" font-size="12" textLength="74.057" font-weight="700">yönləndirir</text></g><!--link auth_svc to sub_svc--><!--link sub_svc to budget_svc--><!--link budget_svc to card_svc--><!--link card_svc to history_svc--><!--reverse link budget_svc to db_adapter--><!--link budget_svc to db_adapter--><g class="link" data-entity-1="ent0008" data-entity-2="ent0011" id="lnk29" data-source-line="1803" data-link-type="dependency"><path d="M596.77,600.297 C596.62,631.847 596.466,664.717 596.316,697.897" style="stroke:#666;stroke-width:1;" fill="none" id="budget_svc-to-db_adapter"/><polygon points="596.28,705.897,599.316,697.911,593.316,697.883,596.28,705.897" fill="#666" style="stroke:#666;stroke-width:1;stroke-linejoin:miter;stroke-miterlimit:10;"/><text x="598" y="666.436" fill="#666" font-size="12" textLength="86.953" font-weight="700">Oxuyur/Yazır</text></g><!--link frontend to router--><g class="link" data-entity-1="ent0001" data-entity-2="ent0005" id="lnk20" data-source-line="1803" data-link-type="dependency"><path d="M561,146.127 C561,182.897 561,224.967 561,263.707" style="stroke:#666;stroke-width:1;" fill="none" id="frontend-to-router"/><polygon points="561,271.707,564,263.707,558,263.707,561,271.707" fill="#666" style="stroke:#666;stroke-width:1;stroke-linejoin:miter;stroke-miterlimit:10;"/><text x="562" y="187.926" fill="#666" font-size="12" textLength="43.852" font-weight="700">HTTPS</text><text x="605.852" y="187.926" fill="#666" font-size="12" font-weight="700"> </text><text x="610.029" y="187.926" fill="#666" font-size="12" font-weight="700">/</text><text x="614.412" y="187.926" fill="#666" font-size="12" font-weight="700"> </text><text x="618.59" y="187.926" fill="#666" font-size="12" textLength="33.352" font-weight="700">JSON</text><text x="651.941" y="187.926" fill="#666" font-size="12" font-weight="700"> </text><text x="656.119" y="187.926" fill="#666" font-size="12" textLength="60.68" font-weight="700">sorğuları</text><text x="598.639" y="201.894" fill="#666" font-size="12" textLength="81.521" font-style="italic">[JSON/HTTPS]</text></g><!--link cron to budget_svc--><g class="link" data-entity-1="ent0002" data-entity-2="ent0008" id="lnk21" data-source-line="1803" data-link-type="dependency"><path d="M1234.92,382.897 C1196.16,407.857 1146.03,435.857 1097,450.897 C935.03,500.557 879.11,431.697 717,480.897 C703.06,485.127 696.099,487.566 682.699,494.296" style="stroke:#666;stroke-width:1;" fill="none" id="cron-to-budget_svc"/><polygon points="675.55,497.887,684.045,496.977,681.353,491.615,675.55,497.887" fill="#666" style="stroke:#666;stroke-width:1;stroke-linejoin:miter;stroke-miterlimit:10;"/><text x="1164" y="434.036" fill="#666" font-size="12" textLength="98.115" font-weight="700">Sinxronizasiya</text><text x="1262.115" y="434.036" fill="#666" font-size="12" font-weight="700"> </text><text x="1266.293" y="434.036" fill="#666" font-size="12" textLength="60.68" font-weight="700">sorğuları</text><text x="1204.726" y="448.004" fill="#666" font-size="12" textLength="81.521" font-style="italic">[JSON/HTTPS]</text></g><!--link router to auth_svc--><g class="link" data-entity-1="ent0005" data-entity-2="ent0006" id="lnk22" data-source-line="1803" data-link-type="dependency"><path d="M453.31,343.817 C348.12,356.707 197.91,381.607 156,421.897 C140.08,437.197 133.159,451.321 128.639,472.641" style="stroke:#666;stroke-width:1;" fill="none" id="router-to-auth_svc"/><polygon points="126.98,480.467,131.574,473.263,125.704,472.019,126.98,480.467" fill="#666" style="stroke:#666;stroke-width:1;stroke-linejoin:miter;stroke-miterlimit:10;"/><text x="157" y="441.036" fill="#666" font-size="12" textLength="103.863" font-weight="700">Giriş/Qeydiyyat</text><text x="260.863" y="441.036" fill="#666" font-size="12" font-weight="700"> </text><text x="265.041" y="441.036" fill="#666" font-size="12" textLength="74.057" font-weight="700">yönləndirir</text></g><!--link router to budget_svc--><g class="link" data-entity-1="ent0005" data-entity-2="ent0008" id="lnk24" data-source-line="1803" data-link-type="dependency"><path d="M570.93,392.227 C576.49,425.457 582.021,458.526 587.301,490.116" style="stroke:#666;stroke-width:1;" fill="none" id="router-to-budget_svc"/><polygon points="588.62,498.007,590.26,489.622,584.342,490.611,588.62,498.007" fill="#666" style="stroke:#666;stroke-width:1;stroke-linejoin:miter;stroke-miterlimit:10;"/><text x="582" y="434.036" fill="#666" font-size="12" textLength="41.531" font-weight="700">Büdcə</text><text x="623.531" y="434.036" fill="#666" font-size="12" font-weight="700"> </text><text x="627.709" y="434.036" fill="#666" font-size="12" textLength="101.385" font-weight="700">əməliyyatlarını</text><text x="618.519" y="448.004" fill="#666" font-size="12" textLength="74.057" font-weight="700">yönləndirir</text></g><!--link router to card_svc--><g class="link" data-entity-1="ent0005" data-entity-2="ent0009" id="lnk25" data-source-line="1803" data-link-type="dependency"><path d="M668.44,349.527 C737.81,362.987 828.64,385.757 903,421.897 C934.75,437.327 960.108,454.353 987.118,475.653" style="stroke:#666;stroke-width:1;" fill="none" id="router-to-card_svc"/><polygon points="993.4,480.607,988.976,473.297,985.261,478.009,993.4,480.607" fill="#666" style="stroke:#666;stroke-width:1;stroke-linejoin:miter;stroke-miterlimit:10;"/><text x="954" y="434.036" fill="#666" font-size="12" textLength="29.051" font-weight="700">Kart</text><text x="983.051" y="434.036" fill="#666" font-size="12" font-weight="700"> </text><text x="987.229" y="434.036" fill="#666" font-size="12" textLength="101.385" font-weight="700">əməliyyatlarını</text><text x="984.278" y="448.004" fill="#666" font-size="12" textLength="74.057" font-weight="700">yönləndirir</text></g><!--link router to history_svc--><g class="link" data-entity-1="ent0005" data-entity-2="ent0010" id="lnk26" data-source-line="1803" data-link-type="dependency"><path d="M668.6,377.487 C692.69,389.997 717.24,404.897 738,421.897 C761.06,440.767 777.42,459.448 794.14,482.328" style="stroke:#666;stroke-width:1;" fill="none" id="router-to-history_svc"/><polygon points="798.86,488.787,796.562,480.558,791.718,484.098,798.86,488.787" fill="#666" style="stroke:#666;stroke-width:1;stroke-linejoin:miter;stroke-miterlimit:10;"/><text x="768" y="434.036" fill="#666" font-size="12" textLength="49.307" font-weight="700">Tarixçə</text><text x="817.307" y="434.036" fill="#666" font-size="12" font-weight="700"> </text><text x="821.484" y="434.036" fill="#666" font-size="12" textLength="73.336" font-weight="700">sorğularını</text><text x="794.382" y="448.004" fill="#666" font-size="12" textLength="74.057" font-weight="700">yönləndirir</text></g><!--link auth_svc to db_adapter--><g class="link" data-entity-1="ent0006" data-entity-2="ent0011" id="lnk27" data-source-line="1803" data-link-type="dependency"><path d="M222.97,608.137 C229.03,611.317 235.07,614.387 241,617.297 C321.92,657.027 408.777,693.094 479.837,721.094" style="stroke:#666;stroke-width:1;" fill="none" id="auth_svc-to-db_adapter"/><polygon points="487.28,724.027,480.937,718.303,478.737,723.885,487.28,724.027" fill="#666" style="stroke:#666;stroke-width:1;stroke-linejoin:miter;stroke-miterlimit:10;"/><text x="368" y="666.436" fill="#666" font-size="12" textLength="70.002" font-weight="700">Sorğulayır</text></g><!--link sub_svc to db_adapter--><g class="link" data-entity-1="ent0007" data-entity-2="ent0011" id="lnk28" data-source-line="1803" data-link-type="dependency"><path d="M423.14,608.347 C456.45,638.607 491.158,670.128 524.658,700.558" style="stroke:#666;stroke-width:1;" fill="none" id="sub_svc-to-db_adapter"/><polygon points="530.58,705.937,526.675,698.337,522.641,702.778,530.58,705.937" fill="#666" style="stroke:#666;stroke-width:1;stroke-linejoin:miter;stroke-miterlimit:10;"/><text x="493" y="666.436" fill="#666" font-size="12" textLength="35.209" font-weight="700">İdarə</text><text x="528.209" y="666.436" fill="#666" font-size="12" font-weight="700"> </text><text x="532.387" y="666.436" fill="#666" font-size="12" textLength="26.76" font-weight="700">edir</text></g><!--link card_svc to db_adapter--><g class="link" data-entity-1="ent0009" data-entity-2="ent0011" id="lnk30" data-source-line="1803" data-link-type="dependency"><path d="M973.55,608.517 C967.99,611.557 962.45,614.507 957,617.297 C874.71,659.467 785.024,695.93 712.234,723.43" style="stroke:#666;stroke-width:1;" fill="none" id="card_svc-to-db_adapter"/><polygon points="704.75,726.257,713.294,726.236,711.173,720.623,704.75,726.257" fill="#666" style="stroke:#666;stroke-width:1;stroke-linejoin:miter;stroke-miterlimit:10;"/><text x="891" y="666.436" fill="#666" font-size="12" textLength="35.209" font-weight="700">İdarə</text><text x="926.209" y="666.436" fill="#666" font-size="12" font-weight="700"> </text><text x="930.387" y="666.436" fill="#666" font-size="12" textLength="26.76" font-weight="700">edir</text></g><!--link history_svc to db_adapter--><g class="link" data-entity-1="ent0010" data-entity-2="ent0011" id="lnk31" data-source-line="1803" data-link-type="dependency"><path d="M770.51,609.487 C736.79,639.607 701.926,670.737 668.246,700.827" style="stroke:#666;stroke-width:1;" fill="none" id="history_svc-to-db_adapter"/><polygon points="662.28,706.157,670.245,703.064,666.247,698.59,662.28,706.157" fill="#666" style="stroke:#666;stroke-width:1;stroke-linejoin:miter;stroke-miterlimit:10;"/><text x="725" y="666.436" fill="#666" font-size="12" textLength="86.953" font-weight="700">Oxuyur/Yazır</text></g><!--link card_svc to payment_gateway--><g class="link" data-entity-1="ent0009" data-entity-2="ent0012" id="lnk32" data-source-line="1803" data-link-type="dependency"><path d="M1138.01,617.617 C1172.53,651.397 1207.633,685.741 1238.113,715.571" style="stroke:#666;stroke-width:1;" fill="none" id="card_svc-to-payment_gateway"/><polygon points="1243.83,721.167,1240.211,713.427,1236.014,717.715,1243.83,721.167" fill="#666" style="stroke:#666;stroke-width:1;stroke-linejoin:miter;stroke-miterlimit:10;"/><text x="1193" y="659.436" fill="#666" font-size="12" textLength="29.051" font-weight="700">Kart</text><text x="1222.051" y="659.436" fill="#666" font-size="12" font-weight="700"> </text><text x="1226.229" y="659.436" fill="#666" font-size="12" textLength="86.76" font-weight="700">doğruluğunu</text><text x="1312.988" y="659.436" fill="#666" font-size="12" font-weight="700"> </text><text x="1317.166" y="659.436" fill="#666" font-size="12" textLength="53.871" font-weight="700">yoxlayır</text><text x="1258.068" y="673.404" fill="#666" font-size="12" textLength="47.9" font-style="italic">[HTTPS]</text></g><!--link db_adapter to database--><g class="link" data-entity-1="ent0011" data-entity-2="ent0003" id="lnk33" data-source-line="1803" data-link-type="dependency"><path d="M596,826.737 C596,855.717 596,882.067 596,909.087" style="stroke:#666;stroke-width:1;" fill="none" id="db_adapter-to-database"/><polygon points="596,917.087,599,909.087,593,909.087,596,917.087" fill="#666" style="stroke:#666;stroke-width:1;stroke-linejoin:miter;stroke-miterlimit:10;"/><text x="597" y="870.546" fill="#666" font-size="12" textLength="26.49" font-weight="700">SQL</text><text x="623.49" y="870.546" fill="#666" font-size="12" font-weight="700"> </text><text x="627.668" y="870.546" fill="#666" font-size="12" textLength="60.68" font-weight="700">sorğuları</text><text x="688.348" y="870.546" fill="#666" font-size="12" font-weight="700"> </text><text x="692.525" y="870.546" fill="#666" font-size="12" textLength="58.055" font-weight="700">göndərir</text><text x="657.636" y="884.514" fill="#666" font-size="12" textLength="32.309" font-style="italic">[TCP]</text></g><g class="legend" data-source-line="66"><text x="1253.749" y="1062.589" fill="#000" font-size="14" textLength="57.921" font-weight="700">Legend</text><text x="1311.67" y="1062.589" fill="#FFF" font-size="14"> </text><rect x="1253.749" y="1065.891" width="150.65" height="16.297" fill="#08427B" style="stroke:none;"/><text x="1258.199" y="1078.886" fill="#FFF" font-size="14" textLength="47.988">person</text><rect x="1253.749" y="1082.188" width="150.65" height="16.297" fill="#1168BD" style="stroke:none;"/><text x="1258.199" y="1095.183" fill="#FFF" font-size="14" textLength="50.613">system</text><rect x="1253.749" y="1098.485" width="150.65" height="16.297" fill="#438DD5" style="stroke:none;"/><text x="1258.199" y="1111.48" fill="#FFF" font-size="14" textLength="66.336">container</text><rect x="1253.749" y="1114.782" width="150.65" height="16.297" fill="#85BBF0" style="stroke:none;"/><text x="1258.199" y="1127.777" fill="#FFF" font-size="14" textLength="79.201">component</text><rect x="1253.749" y="1131.079" width="150.65" height="16.297" fill="#686868" style="stroke:none;"/><text x="1258.199" y="1144.074" fill="#FFF" font-size="14" textLength="110.537">external person</text><rect x="1253.749" y="1147.376" width="150.65" height="16.297" fill="#999" style="stroke:none;"/><text x="1258.199" y="1160.371" fill="#FFF" font-size="14" textLength="113.162">external system</text><rect x="1253.749" y="1163.673" width="150.65" height="16.297" fill="#B3B3B3" style="stroke:none;"/><text x="1258.199" y="1176.668" fill="#FFF" font-size="14" textLength="128.885">external container</text><rect x="1253.749" y="1179.969" width="150.65" height="16.297" fill="#CCC" style="stroke:none;"/><text x="1258.199" y="1192.964" fill="#FFF" font-size="14" textLength="141.75">external component</text><line x1="1253.749" y1="1049.594" x2="1404.399" y2="1049.594" style="stroke:#FFF;stroke-width:1;"/><line x1="1253.749" y1="1065.891" x2="1404.399" y2="1065.891" style="stroke:#FFF;stroke-width:1;"/><line x1="1253.749" y1="1082.188" x2="1404.399" y2="1082.188" style="stroke:#FFF;stroke-width:1;"/><line x1="1253.749" y1="1098.485" x2="1404.399" y2="1098.485" style="stroke:#FFF;stroke-width:1;"/><line x1="1253.749" y1="1114.782" x2="1404.399" y2="1114.782" style="stroke:#FFF;stroke-width:1;"/><line x1="1253.749" y1="1131.079" x2="1404.399" y2="1131.079" style="stroke:#FFF;stroke-width:1;"/><line x1="1253.749" y1="1147.376" x2="1404.399" y2="1147.376" style="stroke:#FFF;stroke-width:1;"/><line x1="1253.749" y1="1163.673" x2="1404.399" y2="1163.673" style="stroke:#FFF;stroke-width:1;"/><line x1="1253.749" y1="1179.969" x2="1404.399" y2="1179.969" style="stroke:#FFF;stroke-width:1;"/><line x1="1253.749" y1="1196.266" x2="1404.399" y2="1196.266" style="stroke:#FFF;stroke-width:1;"/><line x1="1253.749" y1="1049.594" x2="1253.749" y2="1196.266" style="stroke:#FFF;stroke-width:1;"/><line x1="1404.399" y1="1049.594" x2="1404.399" y2="1196.266" style="stroke:#FFF;stroke-width:1;"/></g><?plantuml-src bLPDRo974BtFhwXmI402SyYUSeXaOyiV2pPhy3ghA48rqxtGOhxewS6Ce_oDI9mu-hg-vEGR-C2_IdKpmym0ygujIyRjgbUlNrMzza_2TzoOSHWf5KQ_DPiI7uw6GerYEuwuT09VSLyTEO7N35tqLUovZKWnLzZDreT6Ln_TTTfD3oF59HqDMe4N1hxE2IdMijh7Nsxk-eFxo_x5e7rsVdPzMgrPbXBAvR2DXLE1GuaUL5iVeCsdt8LVQz20sxDU7uwxbz3ZSigbPRM83mgVo-fNQQYnEbGwWIrS-CnjwA_doXOJkBkiqFb5lzEkGwlNgyDLJnyGKYDPp-6Yt-_sOFdok9vBuRFrt8SeaAj5xAA4uV8_VII5FAhK2WKTAaWOBVe1Lu4DVmZcKJcXWQy3nXiw0AhtWHnpMTEd9yiNvgpdhWQ3IFWp2d3nTS5MpzB32H5OFYrVV7D1Zwk0KVdLixzwXkKJhXOKHTyb4gTsbQ526oDE-9-v50Jkwm9mWeyOhPvrtHk93gdRX6uGgQ7alKzjVTmXAh67obI126Sk9ca1gvTG_xp1IH3x36LInL0C8gCv9UvqWPgKyO4ieLQfmTyMqDUsfrKPnChadyr2oQC8Riq1_0p7iHf1Hp3cyWUKlB8NO-YYV5t8MEMAmPHwTtNV1nMCkGz9G3SWjLuN6z444Q40pZQTqsHs627L7KHJXz1Nto8blY8rUlaaI2f3gTZI4qSceIAoLB2obp3X2HD9WchrN8UXaE9rOTYfzNpaBb_6wtaa7bqnXlMS45qJkkskS2IMQEOCezXE2HxRiQypnoLMLpZ5dYC5CTDDa87hRjJQXfjf8t5G8gdcUdeewY0vmx7Ih0pDIBZ2z_IllZYaMqx8ZjcGgvHJEj0_nYWBTeL7osvO2QrFGknqhGsHK6__pcwaGracug1aAOtbltfbjUGVKQRZ_4EKyiJIkjLXJ3Z0WXNDcuiURZkbAPAgE4st-7jgZKIa0fdiyUoZ5BFbaz7_dKnLdahL4tmaTR9Hcp3XlJNlp1uWmt2pXOVS0exrdmCPvxPnUaBR40x1SGL1c4PIBEXKi8MqgKTeD9dGmIIMyOODUKpkeGV6_9-jnvpDL3N4n2FqmH0LEK1Ikd1N1bDC6B65QYTmniPAFvORfAcdxcdiwnTeOqBE0HV2Ln5KpwLW42aPEogMl6Pjh0WQVux8TBZ_5miU_CRla6wRbVb27Y35SAGA4UdF_O1yFwpyutvODhrMzc4_f30xLjwuF2uEo-NeqjHfB_Q5Wqe4VcJTShVmB6xjT_FQDUaDlBakziWC89qrJG39gFCthrnfwtkRxHGqCIB1Dn4CH5QuuBRdnY6RdpBNX8GUMJsCD1r2fgMpl4CUUCX6ty8uQ5ll1IbOZfc_z-QNtM3h0RjxiWjXC7BnIalSIrFrmvrMsyfL2bnzotqg3IngKegzcSL9B9jVZBTaSx2z-_TWIxTy4tS7UDy4YbiUqptzUFF8czjcavoMBLOg_4-quqE5_-OqGB_LhTJ-1m00?></g></svg>