<svg xmlns="http://www.w3.org/2000/svg" xmlns:xlink="http://www.w3.org/1999/xlink" version="1.1" data-diagram-type="DESCRIPTION" style="width:1421px;height:1278px;background:#FFFFFF;" width="1421px" height="1278px" viewBox="0 0 1421 1278" zoomAndPan="magnify" preserveAspectRatio="none" contentStyleType="text/css"><?plantuml 1.2026.7beta8?><defs/><g font-family="sans-serif" lengthAdjust="spacing"><g class="title" data-source-line="5"><text x="504.938" y="22.995" fill="#000" font-size="14" textLength="404.551" font-weight="700">Component Diagram (C4 Level 3) - REST API Server</text></g><!--cluster api_server--><g class="cluster" data-qualified-name="api_server" id="ent0004" data-source-line="1690"><rect x="7" y="223.357" width="1176" height="675.2" fill="none" style="stroke:#444;stroke-width:1;stroke-dasharray:7,7;"/><text x="421.59" y="240.208" fill="#444" font-size="16" textLength="346.82" font-weight="700">REST API Server (Container Boundary)</text><text x="565.272" y="255.121" fill="#444" font-size="12" textLength="59.455" font-weight="700">[system]</text></g><!--entity router--><g class="entity" data-qualified-name="api_server.router" id="ent0005" data-source-line="83"><rect x="390.68" y="274.357" width="214.633" height="120.109" fill="#85BBF0" style="stroke:#78A8D8;stroke-width:0.5;"/><text x="419.657" y="299.208" fill="#000" font-size="16" textLength="70.492" font-weight="700">Express</text><text x="490.149" y="299.208" fill="#000" font-size="16" font-weight="700"> </text><text x="495.719" y="299.208" fill="#000" font-size="16" textLength="61.094" font-weight="700">Router</text><text x="556.813" y="299.208" fill="#000" font-size="16" font-weight="700"> </text><text x="562.383" y="299.208" fill="#000" font-size="16" font-weight="700">&amp;</text><text x="421.321" y="317.833" fill="#000" font-size="16" textLength="42.813" font-weight="700">Auth</text><text x="464.133" y="317.833" fill="#000" font-size="16" font-weight="700"> </text><text x="469.703" y="317.833" fill="#000" font-size="16" textLength="104.969" font-weight="700">Middleware</text><text x="447.694" y="332.746" fill="#000" font-size="12" textLength="51.803" font-style="italic">[Express</text><text x="499.496" y="332.746" fill="#000" font-size="12" font-style="italic"> </text><text x="503.311" y="332.746" fill="#000" font-size="12" textLength="44.988" font-style="italic">Router]</text><text x="495.771" y="348.571" fill="#000" font-size="14"> </text><text x="414.666" y="364.868" fill="#000" font-size="14" textLength="114.338">Marşrutlaşdırma</text><text x="529.004" y="364.868" fill="#000" font-size="14"> </text><text x="533.454" y="364.868" fill="#000" font-size="14" textLength="16.898">və</text><text x="550.353" y="364.868" fill="#000" font-size="14"> </text><text x="554.803" y="364.868" fill="#000" font-size="14" textLength="26.523">JWT</text><text x="400.68" y="381.164" fill="#000" font-size="14" textLength="39.648">token</text><text x="440.328" y="381.164" fill="#000" font-size="14"> </text><text x="444.779" y="381.164" fill="#000" font-size="14" textLength="74.313">yoxlanışını</text><text x="519.092" y="381.164" fill="#000" font-size="14"> </text><text x="523.542" y="381.164" fill="#000" font-size="14" textLength="35.725">idarə</text><text x="559.267" y="381.164" fill="#000" font-size="14"> </text><text x="563.717" y="381.164" fill="#000" font-size="14" textLength="31.596">edir.</text></g><!--entity auth_svc--><g class="entity" data-qualified-name="api_server.auth_svc" id="ent0006" data-source-line="83"><rect x="23.22" y="537.047" width="199.553" height="136.406" fill="#85BBF0" style="stroke:#78A8D8;stroke-width:0.5;"/><text x="51.278" y="561.898" fill="#000" font-size="16" textLength="83.641" font-weight="700">İstifadəçi</text><text x="134.918" y="561.898" fill="#000" font-size="16" font-weight="700"> </text><text x="140.489" y="561.898" fill="#000" font-size="16" font-weight="700">/</text><text x="146.332" y="561.898" fill="#000" font-size="16" font-weight="700"> </text><text x="151.903" y="561.898" fill="#000" font-size="16" textLength="42.813" font-weight="700">Auth</text><text x="88.032" y="580.523" fill="#000" font-size="16" textLength="69.93" font-weight="700">Xidməti</text><text x="78.861" y="595.436" fill="#000" font-size="12" textLength="43.869" font-style="italic">[Bcrypt</text><text x="122.73" y="595.436" fill="#000" font-size="12" font-style="italic"> </text><text x="126.544" y="595.436" fill="#000" font-size="12" font-style="italic">&amp;</text><text x="135.902" y="595.436" fill="#000" font-size="12" font-style="italic"> </text><text x="139.716" y="595.436" fill="#000" font-size="12" textLength="27.416" font-style="italic">JWT]</text><text x="120.771" y="611.261" fill="#000" font-size="14"> </text><text x="33.22" y="627.558" fill="#000" font-size="14" textLength="63.396">İstifadəçi</text><text x="96.616" y="627.558" fill="#000" font-size="14"> </text><text x="101.067" y="627.558" fill="#000" font-size="14" textLength="77.54">qeydiyyatı,</text><text x="178.607" y="627.558" fill="#000" font-size="14"> </text><text x="183.057" y="627.558" fill="#000" font-size="14" textLength="29.716">giriş</text><text x="68.883" y="643.854" fill="#000" font-size="14" textLength="16.898">və</text><text x="85.782" y="643.854" fill="#000" font-size="14"> </text><text x="90.232" y="643.854" fill="#000" font-size="14" textLength="86.878">təhlükəsizlik</text><text x="37.708" y="660.151" fill="#000" font-size="14" textLength="104.159">əməliyyatlarını</text><text x="141.867" y="660.151" fill="#000" font-size="14"> </text><text x="146.317" y="660.151" fill="#000" font-size="14" textLength="25.922">icra</text><text x="172.239" y="660.151" fill="#000" font-size="14"> </text><text x="176.689" y="660.151" fill="#000" font-size="14" textLength="31.596">edir.</text></g><!--entity sub_svc--><g class="entity" data-qualified-name="api_server.sub_svc" id="ent0007" data-source-line="83"><rect x="258.05" y="546.357" width="201.897" height="117.781" fill="#85BBF0" style="stroke:#78A8D8;stroke-width:0.5;"/><text x="281.71" y="571.208" fill="#000" font-size="16" textLength="79.078" font-weight="700">Abunəlik</text><text x="360.788" y="571.208" fill="#000" font-size="16" font-weight="700"> </text><text x="366.358" y="571.208" fill="#000" font-size="16" textLength="69.93" font-weight="700">Xidməti</text><text x="292.688" y="586.121" fill="#000" font-size="12" textLength="64.834" font-style="italic">[JavaScript</text><text x="357.522" y="586.121" fill="#000" font-size="12" font-style="italic"> </text><text x="361.337" y="586.121" fill="#000" font-size="12" textLength="63.973" font-style="italic">Controller]</text><text x="356.774" y="601.946" fill="#000" font-size="14"> </text><text x="268.05" y="618.243" fill="#000" font-size="14" textLength="91.731">Abunəliklərin</text><text x="359.781" y="618.243" fill="#000" font-size="14"> </text><text x="364.232" y="618.243" fill="#000" font-size="14" textLength="85.716">yaradılması,</text><text x="276.468" y="634.539" fill="#000" font-size="14" textLength="65.229">redaktəsi</text><text x="341.697" y="634.539" fill="#000" font-size="14"> </text><text x="346.147" y="634.539" fill="#000" font-size="14" textLength="16.898">və</text><text x="363.046" y="634.539" fill="#000" font-size="14"> </text><text x="367.496" y="634.539" fill="#000" font-size="14" textLength="74.033">silinməsini</text><text x="323.113" y="650.836" fill="#000" font-size="14" textLength="35.725">idarə</text><text x="358.838" y="650.836" fill="#000" font-size="14"> </text><text x="363.288" y="650.836" fill="#000" font-size="14" textLength="31.596">edir.</text></g><!--entity budget_svc--><g class="entity" data-qualified-name="api_server.budget_svc" id="ent0008" data-source-line="83"><rect x="494.49" y="554.507" width="205.028" height="101.484" fill="#85BBF0" style="stroke:#78A8D8;stroke-width:0.5;"/><text x="531.567" y="579.358" fill="#000" font-size="16" textLength="55.375" font-weight="700">Büdcə</text><text x="586.942" y="579.358" fill="#000" font-size="16" font-weight="700"> </text><text x="592.512" y="579.358" fill="#000" font-size="16" textLength="69.93" font-weight="700">Xidməti</text><text x="530.694" y="594.271" fill="#000" font-size="12" textLength="64.834" font-style="italic">[JavaScript</text><text x="595.528" y="594.271" fill="#000" font-size="12" font-style="italic"> </text><text x="599.342" y="594.271" fill="#000" font-size="12" textLength="63.973" font-style="italic">Controller]</text><text x="594.779" y="610.096" fill="#000" font-size="14"> </text><text x="504.49" y="626.393" fill="#000" font-size="14" textLength="43.675">Büdcə</text><text x="548.165" y="626.393" fill="#000" font-size="14"> </text><text x="552.615" y="626.393" fill="#000" font-size="14" textLength="65.707">limitlərini</text><text x="618.322" y="626.393" fill="#000" font-size="14"> </text><text x="622.772" y="626.393" fill="#000" font-size="14" textLength="35.15">təyin</text><text x="657.923" y="626.393" fill="#000" font-size="14"> </text><text x="662.373" y="626.393" fill="#000" font-size="14" textLength="27.146">edir</text><text x="512.563" y="642.689" fill="#000" font-size="14" textLength="16.898">və</text><text x="529.462" y="642.689" fill="#000" font-size="14"> </text><text x="533.912" y="642.689" fill="#000" font-size="14" textLength="39.156">spent</text><text x="573.068" y="642.689" fill="#000" font-size="14"> </text><text x="577.518" y="642.689" fill="#000" font-size="14" textLength="103.927">sinxronlaşdırır.</text></g><!--entity card_svc--><g class="entity" data-qualified-name="api_server.card_svc" id="ent0009" data-source-line="83"><rect x="734.04" y="537.047" width="189.928" height="136.406" fill="#85BBF0" style="stroke:#78A8D8;stroke-width:0.5;"/><text x="760.871" y="561.898" fill="#000" font-size="16" textLength="62.305" font-weight="700">Ödəniş</text><text x="823.176" y="561.898" fill="#000" font-size="16" font-weight="700"> </text><text x="828.746" y="561.898" fill="#000" font-size="16" textLength="68.391" font-weight="700">Kartları</text><text x="794.039" y="580.523" fill="#000" font-size="16" textLength="69.93" font-weight="700">Xidməti</text><text x="762.693" y="595.436" fill="#000" font-size="12" textLength="64.834" font-style="italic">[JavaScript</text><text x="827.527" y="595.436" fill="#000" font-size="12" font-style="italic"> </text><text x="831.342" y="595.436" fill="#000" font-size="12" textLength="63.973" font-style="italic">Controller]</text><text x="826.779" y="611.261" fill="#000" font-size="14"> </text><text x="744.04" y="627.558" fill="#000" font-size="14" textLength="48.576">Ödəniş</text><text x="792.616" y="627.558" fill="#000" font-size="14"> </text><text x="797.066" y="627.558" fill="#000" font-size="14" textLength="84.52">metodlarını,</text><text x="881.586" y="627.558" fill="#000" font-size="14"> </text><text x="886.036" y="627.558" fill="#000" font-size="14" textLength="27.932">kart</text><text x="763.064" y="643.854" fill="#000" font-size="14" textLength="110.53">doğrulamalarını</text><text x="873.595" y="643.854" fill="#000" font-size="14"> </text><text x="878.045" y="643.854" fill="#000" font-size="14" textLength="16.898">və</text><text x="754.448" y="660.151" fill="#000" font-size="14" textLength="72.892">əlavələrini</text><text x="827.339" y="660.151" fill="#000" font-size="14"> </text><text x="831.79" y="660.151" fill="#000" font-size="14" textLength="35.725">idarə</text><text x="867.514" y="660.151" fill="#000" font-size="14"> </text><text x="871.964" y="660.151" fill="#000" font-size="14" textLength="31.596">edir.</text></g><!--entity notification_svc--><g class="entity" data-qualified-name="api_server.notification_svc" id="ent0010" data-source-line="83"><rect x="959.25" y="538.207" width="207.496" height="134.078" fill="#85BBF0" style="stroke:#78A8D8;stroke-width:0.5;"/><text x="993.748" y="563.058" fill="#000" font-size="16" textLength="63" font-weight="700">Bildiriş</text><text x="1056.748" y="563.058" fill="#000" font-size="16" font-weight="700"> </text><text x="1062.318" y="563.058" fill="#000" font-size="16" textLength="69.93" font-weight="700">Xidməti</text><text x="1004.158" y="577.971" fill="#000" font-size="12" textLength="64.834" font-style="italic">[JavaScript</text><text x="1068.992" y="577.971" fill="#000" font-size="12" font-style="italic"> </text><text x="1072.807" y="577.971" fill="#000" font-size="12" textLength="49.031" font-style="italic">Service]</text><text x="1060.773" y="593.796" fill="#000" font-size="14"> </text><text x="988.903" y="610.093" fill="#000" font-size="14" textLength="48.576">Ödəniş</text><text x="1037.479" y="610.093" fill="#000" font-size="14"> </text><text x="1041.93" y="610.093" fill="#000" font-size="14" textLength="58.892">tezliyinə</text><text x="1100.821" y="610.093" fill="#000" font-size="14"> </text><text x="1105.271" y="610.093" fill="#000" font-size="14" textLength="31.821">görə</text><text x="969.25" y="626.389" fill="#000" font-size="14" textLength="103.004">fərdiləşdirilmiş</text><text x="1072.254" y="626.389" fill="#000" font-size="14"> </text><text x="1076.704" y="626.389" fill="#000" font-size="14" textLength="80.042">xəbərdarlıq</text><text x="985.612" y="642.686" fill="#000" font-size="14" textLength="64.128">mesajları</text><text x="1049.74" y="642.686" fill="#000" font-size="14"> </text><text x="1054.19" y="642.686" fill="#000" font-size="14" textLength="64.846">hazırlayır</text><text x="1119.036" y="642.686" fill="#000" font-size="14"> </text><text x="1123.486" y="642.686" fill="#000" font-size="14" textLength="16.898">və</text><text x="1016.49" y="658.983" fill="#000" font-size="14" textLength="50.258">bazaya</text><text x="1066.748" y="658.983" fill="#000" font-size="14"> </text><text x="1071.198" y="658.983" fill="#000" font-size="14" textLength="38.309">yazır.</text></g><!--entity db_adapter--><g class="entity" data-qualified-name="api_server.db_adapter" id="ent0011" data-source-line="83"><rect x="487.55" y="762.447" width="216.902" height="120.109" fill="#85BBF0" style="stroke:#78A8D8;stroke-width:0.5;"/><text x="519.88" y="787.298" fill="#000" font-size="16" textLength="88.563" font-weight="700">Verilənlər</text><text x="608.443" y="787.298" fill="#000" font-size="16" font-weight="700"> </text><text x="614.013" y="787.298" fill="#000" font-size="16" textLength="58.109" font-weight="700">Bazası</text><text x="553.997" y="805.923" fill="#000" font-size="16" textLength="84.008" font-weight="700">Adaptoru</text><text x="531.22" y="820.836" fill="#000" font-size="12" textLength="61.201" font-style="italic">[OracleDB</text><text x="592.421" y="820.836" fill="#000" font-size="12" font-style="italic"> </text><text x="596.236" y="820.836" fill="#000" font-size="12" font-style="italic">/</text><text x="600.279" y="820.836" fill="#000" font-size="12" font-style="italic"> </text><text x="604.093" y="820.836" fill="#000" font-size="12" textLength="15.234" font-style="italic">pg</text><text x="619.327" y="820.836" fill="#000" font-size="12" font-style="italic"> </text><text x="623.142" y="820.836" fill="#000" font-size="12" textLength="37.641" font-style="italic">client]</text><text x="593.776" y="836.661" fill="#000" font-size="14"> </text><text x="497.55" y="852.958" fill="#000" font-size="14" textLength="34.111">Baza</text><text x="531.661" y="852.958" fill="#000" font-size="14"> </text><text x="536.112" y="852.958" fill="#000" font-size="14" textLength="16.393">ilə</text><text x="552.504" y="852.958" fill="#000" font-size="14"> </text><text x="556.954" y="852.958" fill="#000" font-size="14" textLength="51.871">birbaşa</text><text x="608.825" y="852.958" fill="#000" font-size="14"> </text><text x="613.276" y="852.958" fill="#000" font-size="14" textLength="38.582">əlaqə</text><text x="651.858" y="852.958" fill="#000" font-size="14"> </text><text x="656.308" y="852.958" fill="#000" font-size="14" textLength="38.145">qurur</text><text x="498.914" y="869.254" fill="#000" font-size="14" textLength="16.898">və</text><text x="515.812" y="869.254" fill="#000" font-size="14"> </text><text x="520.262" y="869.254" fill="#000" font-size="14" textLength="27.706">SQL</text><text x="547.968" y="869.254" fill="#000" font-size="14"> </text><text x="552.419" y="869.254" fill="#000" font-size="14" textLength="74.252">sorğularını</text><text x="626.671" y="869.254" fill="#000" font-size="14"> </text><text x="631.121" y="869.254" fill="#000" font-size="14" textLength="25.922">icra</text><text x="657.043" y="869.254" fill="#000" font-size="14"> </text><text x="661.493" y="869.254" fill="#000" font-size="14" textLength="31.596">edir.</text></g><!--entity frontend--><g class="entity" data-qualified-name="frontend" id="ent0001" data-source-line="76"><rect x="399.26" y="44.297" width="197.484" height="101.484" fill="#438DD5" style="stroke:#3C7FC0;stroke-width:0.5;"/><text x="409.26" y="69.148" fill="#FFF" font-size="16" textLength="49.336" font-weight="700">Mobil</text><text x="458.596" y="69.148" fill="#FFF" font-size="16" font-weight="700"> </text><text x="464.166" y="69.148" fill="#FFF" font-size="16" textLength="34.688" font-weight="700">Veb</text><text x="498.854" y="69.148" fill="#FFF" font-size="16" font-weight="700"> </text><text x="504.424" y="69.148" fill="#FFF" font-size="16" textLength="57.805" font-weight="700">Tətbiq</text><text x="562.229" y="69.148" fill="#FFF" font-size="16" font-weight="700"> </text><text x="567.799" y="69.148" fill="#FFF" font-size="16" textLength="18.945" font-weight="700">UI</text><text x="451.611" y="84.061" fill="#FFF" font-size="12" textLength="41.889" font-style="italic">[HTML,</text><text x="493.499" y="84.061" fill="#FFF" font-size="12" font-style="italic"> </text><text x="497.314" y="84.061" fill="#FFF" font-size="12" textLength="27.428" font-style="italic">CSS,</text><text x="524.741" y="84.061" fill="#FFF" font-size="12" font-style="italic"> </text><text x="528.556" y="84.061" fill="#FFF" font-size="12" textLength="15.838" font-style="italic">JS]</text><text x="495.777" y="99.886" fill="#FFF" font-size="14"> </text><text x="414.159" y="116.183" fill="#FFF" font-size="14" textLength="44.099">API-yə</text><text x="458.258" y="116.183" fill="#FFF" font-size="14"> </text><text x="462.708" y="116.183" fill="#FFF" font-size="14" textLength="44.96">HTTPS</text><text x="507.668" y="116.183" fill="#FFF" font-size="14"> </text><text x="512.118" y="116.183" fill="#FFF" font-size="14" textLength="69.727">üzərindən</text><text x="435.139" y="132.479" fill="#FFF" font-size="14" textLength="57.6">sorğular</text><text x="492.739" y="132.479" fill="#FFF" font-size="14"> </text><text x="497.189" y="132.479" fill="#FFF" font-size="14" textLength="63.677">göndərir.</text></g><!--entity cron--><g class="entity" data-qualified-name="cron" id="ent0002" data-source-line="76"><rect x="1198.57" y="234.777" width="208.856" height="199.266" fill="#438DD5" style="stroke:#3C7FC0;stroke-width:0.5;"/><text x="1227.256" y="259.628" fill="#FFF" font-size="16" textLength="42.016" font-weight="700">Cron</text><text x="1269.272" y="259.628" fill="#FFF" font-size="16" font-weight="700"> </text><text x="1274.842" y="259.628" fill="#FFF" font-size="16" textLength="28.398" font-weight="700">Job</text><text x="1303.24" y="259.628" fill="#FFF" font-size="16" font-weight="700"> </text><text x="1308.811" y="259.628" fill="#FFF" font-size="16" textLength="69.93" font-weight="700">Xidməti</text><text x="1238.961" y="274.541" fill="#FFF" font-size="12" textLength="66.809" font-style="italic">[Node-cron</text><text x="1305.77" y="274.541" fill="#FFF" font-size="12" font-style="italic"> </text><text x="1309.584" y="274.541" fill="#FFF" font-size="12" textLength="57.451" font-style="italic">(Worker)]</text><text x="1300.773" y="290.366" fill="#FFF" font-size="14"> </text><text x="1212.388" y="306.663" fill="#FFF" font-size="14" textLength="24.896">Hər</text><text x="1237.284" y="306.663" fill="#FFF" font-size="14"> </text><text x="1241.735" y="306.663" fill="#FFF" font-size="14" textLength="29.941">saat</text><text x="1271.676" y="306.663" fill="#FFF" font-size="14"> </text><text x="1276.126" y="306.663" fill="#FFF" font-size="14" textLength="46.122">ödəniş</text><text x="1322.248" y="306.663" fill="#FFF" font-size="14"> </text><text x="1326.698" y="306.663" fill="#FFF" font-size="14" textLength="66.91">tarixlərini</text><text x="1208.57" y="322.959" fill="#FFF" font-size="14" textLength="16.898">və</text><text x="1225.468" y="322.959" fill="#FFF" font-size="14"> </text><text x="1229.919" y="322.959" fill="#FFF" font-size="14" textLength="37.338">tezlik</text><text x="1267.257" y="322.959" fill="#FFF" font-size="14"> </text><text x="1271.707" y="322.959" fill="#FFF" font-size="14" textLength="61.284">hədlərini</text><text x="1332.991" y="322.959" fill="#FFF" font-size="14"> </text><text x="1337.441" y="322.959" fill="#FFF" font-size="14" textLength="59.985">yoxlayır,</text><text x="1217.85" y="339.256" fill="#FFF" font-size="14" textLength="107.495">təkrarlanmanın</text><text x="1325.345" y="339.256" fill="#FFF" font-size="14"> </text><text x="1329.795" y="339.256" fill="#FFF" font-size="14" textLength="58.352">qarşısını</text><text x="1212.203" y="355.553" fill="#FFF" font-size="14" textLength="44.27">alaraq</text><text x="1256.473" y="355.553" fill="#FFF" font-size="14"> </text><text x="1260.923" y="355.553" fill="#FFF" font-size="14" textLength="79.577">yaxınlaşan,</text><text x="1340.5" y="355.553" fill="#FFF" font-size="14"> </text><text x="1344.95" y="355.553" fill="#FFF" font-size="14" textLength="17.76">bu</text><text x="1362.71" y="355.553" fill="#FFF" font-size="14"> </text><text x="1367.16" y="355.553" fill="#FFF" font-size="14" textLength="26.633">gün</text><text x="1209.722" y="371.85" fill="#FFF" font-size="14" textLength="29.907">olan</text><text x="1239.629" y="371.85" fill="#FFF" font-size="14"> </text><text x="1244.079" y="371.85" fill="#FFF" font-size="14" textLength="16.898">və</text><text x="1260.978" y="371.85" fill="#FFF" font-size="14"> </text><text x="1265.428" y="371.85" fill="#FFF" font-size="14" textLength="62.016">gecikmiş</text><text x="1327.444" y="371.85" fill="#FFF" font-size="14"> </text><text x="1331.894" y="371.85" fill="#FFF" font-size="14" textLength="64.381">ödənişlər</text><text x="1250.676" y="388.147" fill="#FFF" font-size="14" textLength="49.335">barədə</text><text x="1300.011" y="388.147" fill="#FFF" font-size="14"> </text><text x="1304.461" y="388.147" fill="#FFF" font-size="14" textLength="50.859">bazada</text><text x="1209.25" y="404.444" fill="#FFF" font-size="14" textLength="103.004">fərdiləşdirilmiş</text><text x="1312.254" y="404.444" fill="#FFF" font-size="14"> </text><text x="1316.704" y="404.444" fill="#FFF" font-size="14" textLength="80.042">xəbərdarlıq</text><text x="1239.417" y="420.741" fill="#FFF" font-size="14" textLength="68.53">bildirişləri</text><text x="1307.947" y="420.741" fill="#FFF" font-size="14"> </text><text x="1312.398" y="420.741" fill="#FFF" font-size="14" textLength="54.182">yaradır.</text></g><!--entity database--><g class="entity" data-qualified-name="database" id="ent0003" data-source-line="80"><path d="M509.88,983.557 C509.88,973.557 596.001,973.557 596.001,973.557 C596.001,973.557 682.122,973.557 682.122,983.557 L682.122,1057.744 C682.122,1067.744 596.001,1067.744 596.001,1067.744 C596.001,1067.744 509.88,1067.744 509.88,1057.744 L509.88,983.557" style="stroke:#3C7FC0;stroke-width:0.5;" fill="#438DD5"/><path d="M509.88,983.557 C509.88,993.557 596.001,993.557 596.001,993.557 C596.001,993.557 682.122,993.557 682.122,983.557" style="stroke:#3C7FC0;stroke-width:0.5;" fill="none"/><text x="519.88" y="1012.408" fill="#FFF" font-size="16" textLength="88.563" font-weight="700">Verilənlər</text><text x="608.443" y="1012.408" fill="#FFF" font-size="16" font-weight="700"> </text><text x="614.013" y="1012.408" fill="#FFF" font-size="16" textLength="58.109" font-weight="700">Bazası</text><text x="531.352" y="1027.321" fill="#FFF" font-size="12" textLength="43.729" font-style="italic">[Oracle</text><text x="575.08" y="1027.321" fill="#FFF" font-size="12" font-style="italic"> </text><text x="578.895" y="1027.321" fill="#FFF" font-size="12" font-style="italic">/</text><text x="582.938" y="1027.321" fill="#FFF" font-size="12" font-style="italic"> </text><text x="586.752" y="1027.321" fill="#FFF" font-size="12" textLength="73.898" font-style="italic">PostgreSQL]</text><text x="593.776" y="1043.146" fill="#FFF" font-size="14"> </text><text x="522.634" y="1059.443" fill="#FFF" font-size="14" textLength="83.275">Məlumatları</text><text x="605.91" y="1059.443" fill="#FFF" font-size="14"> </text><text x="610.36" y="1059.443" fill="#FFF" font-size="14" textLength="59.008">saxlayır.</text></g><!--entity payment_gateway--><g class="entity" data-qualified-name="payment_gateway" id="ent0012" data-source-line="419"><rect x="1199.09" y="777.587" width="185.82" height="89.844" fill="#999" style="stroke:#8A8A8A;stroke-width:0.5;"/><text x="1209.09" y="802.438" fill="#FFF" font-size="16" textLength="62.305" font-weight="700">Ödəniş</text><text x="1271.395" y="802.438" fill="#FFF" font-size="16" font-weight="700"> </text><text x="1276.965" y="802.438" fill="#FFF" font-size="16" textLength="97.945" font-weight="700">Provayderi</text><text x="1261.168" y="821.063" fill="#FFF" font-size="16" textLength="61.664" font-weight="700">(Mock)</text><text x="1289.775" y="837.832" fill="#FFF" font-size="14"> </text><text x="1210.246" y="854.129" fill="#FFF" font-size="14" textLength="29.005">Kart</text><text x="1239.251" y="854.129" fill="#FFF" font-size="14"> </text><text x="1243.701" y="854.129" fill="#FFF" font-size="14" textLength="86.837">doğrulaması</text><text x="1330.538" y="854.129" fill="#FFF" font-size="14"> </text><text x="1334.988" y="854.129" fill="#FFF" font-size="14" textLength="38.767">üçün.</text></g><!--link router to sub_svc--><!--link router to sub_svc--><g class="link" data-entity-1="ent0005" data-entity-2="ent0007" id="lnk23" data-source-line="1803" data-link-type="dependency"><path d="M436.21,394.957 C418.22,415.307 400.16,439.237 388,464.047 C375.53,489.487 369.637,512.171 365.587,538.271" style="stroke:#666;stroke-width:1;" fill="none" id="router-to-sub_svc-1"/><polygon points="364.36,546.177,368.551,538.731,362.622,537.811,364.36,546.177" fill="#666" style="stroke:#666;stroke-width:1;stroke-linejoin:miter;stroke-miterlimit:10;"/><text x="389" y="483.186" fill="#666" font-size="12" textLength="59.309" font-weight="700">Abunəlik</text><text x="448.309" y="483.186" fill="#666" font-size="12" font-weight="700"> </text><text x="452.486" y="483.186" fill="#666" font-size="12" textLength="101.385" font-weight="700">əməliyyatlarını</text><text x="434.407" y="497.154" fill="#666" font-size="12" textLength="74.057" font-weight="700">yönləndirir</text></g><!--link auth_svc to sub_svc--><!--link sub_svc to budget_svc--><!--link budget_svc to card_svc--><!--link card_svc to notification_svc--><!--reverse link budget_svc to db_adapter--><!--link budget_svc to db_adapter--><g class="link" data-entity-1="ent0008" data-entity-2="ent0011" id="lnk29" data-source-line="1803" data-link-type="dependency"><path d="M596.77,656.447 C596.62,687.997 596.466,720.867 596.316,754.047" style="stroke:#666;stroke-width:1;" fill="none" id="budget_svc-to-db_adapter"/><polygon points="596.28,762.047,599.316,754.061,593.316,754.033,596.28,762.047" fill="#666" style="stroke:#666;stroke-width:1;stroke-linejoin:miter;stroke-miterlimit:10;"/><text x="598" y="722.586" fill="#666" font-size="12" textLength="86.953" font-weight="700">Oxuyur/Yazır</text></g><!--link frontend to router--><g class="link" data-entity-1="ent0001" data-entity-2="ent0005" id="lnk20" data-source-line="1803" data-link-type="dependency"><path d="M498,146.087 C498,183.497 498,226.757 498,266.197" style="stroke:#666;stroke-width:1;" fill="none" id="frontend-to-router"/><polygon points="498,274.197,501,266.197,495,266.197,498,274.197" fill="#666" style="stroke:#666;stroke-width:1;stroke-linejoin:miter;stroke-miterlimit:10;"/><text x="499" y="187.916" fill="#666" font-size="12" textLength="43.852" font-weight="700">HTTPS</text><text x="542.852" y="187.916" fill="#666" font-size="12" font-weight="700"> </text><text x="547.029" y="187.916" fill="#666" font-size="12" font-weight="700">/</text><text x="551.412" y="187.916" fill="#666" font-size="12" font-weight="700"> </text><text x="555.59" y="187.916" fill="#666" font-size="12" textLength="33.352" font-weight="700">JSON</text><text x="588.941" y="187.916" fill="#666" font-size="12" font-weight="700"> </text><text x="593.119" y="187.916" fill="#666" font-size="12" textLength="60.68" font-weight="700">sorğuları</text><text x="535.639" y="201.884" fill="#666" font-size="12" textLength="81.521" font-style="italic">[JSON/HTTPS]</text></g><!--link cron to notification_svc--><g class="link" data-entity-1="ent0002" data-entity-2="ent0010" id="lnk21" data-source-line="1803" data-link-type="dependency"><path d="M1214.66,434.367 C1183.91,468.807 1155.519,500.62 1127.689,531.78" style="stroke:#666;stroke-width:1;" fill="none" id="cron-to-notification_svc"/><polygon points="1122.36,537.747,1129.927,533.779,1125.452,529.782,1122.36,537.747" fill="#666" style="stroke:#666;stroke-width:1;stroke-linejoin:miter;stroke-miterlimit:10;"/><text x="1184" y="476.186" fill="#666" font-size="12" textLength="47.25" font-weight="700">Bildiriş</text><text x="1231.25" y="476.186" fill="#666" font-size="12" font-weight="700"> </text><text x="1235.428" y="476.186" fill="#666" font-size="12" textLength="64.863" font-weight="700">yaratmaq</text><text x="1300.291" y="476.186" fill="#666" font-size="12" font-weight="700"> </text><text x="1304.469" y="476.186" fill="#666" font-size="12" textLength="32.742" font-weight="700">üçün</text><text x="1238.674" y="490.154" fill="#666" font-size="12" textLength="43.863" font-weight="700">çağırır</text><text x="1209.482" y="504.123" fill="#666" font-size="12" textLength="15.838" font-style="italic">[JS</text><text x="1225.32" y="504.123" fill="#666" font-size="12" font-style="italic"> </text><text x="1229.135" y="504.123" fill="#666" font-size="12" textLength="51.697" font-style="italic">Function</text><text x="1280.832" y="504.123" fill="#666" font-size="12" font-style="italic"> </text><text x="1284.646" y="504.123" fill="#666" font-size="12" textLength="27.082" font-style="italic">Call]</text></g><!--link router to auth_svc--><g class="link" data-entity-1="ent0005" data-entity-2="ent0006" id="lnk22" data-source-line="1803" data-link-type="dependency"><path d="M390.37,349.257 C314.58,364.627 216.41,396.847 157,464.047 C139.41,483.937 131.907,503.501 127.577,528.851" style="stroke:#666;stroke-width:1;" fill="none" id="router-to-auth_svc"/><polygon points="126.23,536.737,130.534,529.356,124.62,528.346,126.23,536.737" fill="#666" style="stroke:#666;stroke-width:1;stroke-linejoin:miter;stroke-miterlimit:10;"/><text x="158" y="490.186" fill="#666" font-size="12" textLength="103.863" font-weight="700">Giriş/Qeydiyyat</text><text x="261.863" y="490.186" fill="#666" font-size="12" font-weight="700"> </text><text x="266.041" y="490.186" fill="#666" font-size="12" textLength="74.057" font-weight="700">yönləndirir</text></g><!--link router to budget_svc--><g class="link" data-entity-1="ent0005" data-entity-2="ent0008" id="lnk24" data-source-line="1803" data-link-type="dependency"><path d="M530.89,394.747 C541.84,416.137 553.42,440.757 562,464.047 C572.76,493.237 579.594,519.223 585.544,546.323" style="stroke:#666;stroke-width:1;" fill="none" id="router-to-budget_svc"/><polygon points="587.26,554.137,588.475,545.68,582.614,546.966,587.26,554.137" fill="#666" style="stroke:#666;stroke-width:1;stroke-linejoin:miter;stroke-miterlimit:10;"/><text x="577" y="483.186" fill="#666" font-size="12" textLength="41.531" font-weight="700">Büdcə</text><text x="618.531" y="483.186" fill="#666" font-size="12" font-weight="700"> </text><text x="622.709" y="483.186" fill="#666" font-size="12" textLength="101.385" font-weight="700">əməliyyatlarını</text><text x="613.519" y="497.154" fill="#666" font-size="12" textLength="74.057" font-weight="700">yönləndirir</text></g><!--link router to card_svc--><g class="link" data-entity-1="ent0005" data-entity-2="ent0009" id="lnk25" data-source-line="1803" data-link-type="dependency"><path d="M605.77,381.027 C648.33,402.307 695.84,430.417 733,464.047 C755.86,484.727 771.746,505.143 787.636,530.043" style="stroke:#666;stroke-width:1;" fill="none" id="router-to-card_svc"/><polygon points="791.94,536.787,790.165,528.429,785.107,531.657,791.94,536.787" fill="#666" style="stroke:#666;stroke-width:1;stroke-linejoin:miter;stroke-miterlimit:10;"/><text x="772" y="483.186" fill="#666" font-size="12" textLength="29.051" font-weight="700">Kart</text><text x="801.051" y="483.186" fill="#666" font-size="12" font-weight="700"> </text><text x="805.229" y="483.186" fill="#666" font-size="12" textLength="101.385" font-weight="700">əməliyyatlarını</text><text x="802.278" y="497.154" fill="#666" font-size="12" textLength="74.057" font-weight="700">yönləndirir</text></g><!--link router to notification_svc--><g class="link" data-entity-1="ent0005" data-entity-2="ent0010" id="lnk26" data-source-line="1803" data-link-type="dependency"><path d="M605.45,354.387 C693.1,373.097 817.86,407.287 915,464.047 C948.31,483.507 974.487,506.097 999.997,532.187" style="stroke:#666;stroke-width:1;" fill="none" id="router-to-notification_svc"/><polygon points="1005.59,537.907,1002.142,530.089,997.852,534.284,1005.59,537.907" fill="#666" style="stroke:#666;stroke-width:1;stroke-linejoin:miter;stroke-miterlimit:10;"/><text x="971" y="483.186" fill="#666" font-size="12" textLength="47.25" font-weight="700">Bildiriş</text><text x="1018.25" y="483.186" fill="#666" font-size="12" font-weight="700"> </text><text x="1022.428" y="483.186" fill="#666" font-size="12" textLength="73.336" font-weight="700">sorğularını</text><text x="996.354" y="497.154" fill="#666" font-size="12" textLength="74.057" font-weight="700">yönləndirir</text></g><!--link auth_svc to db_adapter--><g class="link" data-entity-1="ent0006" data-entity-2="ent0011" id="lnk27" data-source-line="1803" data-link-type="dependency"><path d="M222.97,664.287 C229.03,667.467 235.07,670.537 241,673.447 C321.92,713.177 408.777,749.244 479.837,777.244" style="stroke:#666;stroke-width:1;" fill="none" id="auth_svc-to-db_adapter"/><polygon points="487.28,780.177,480.937,774.453,478.737,780.035,487.28,780.177" fill="#666" style="stroke:#666;stroke-width:1;stroke-linejoin:miter;stroke-miterlimit:10;"/><text x="368" y="722.586" fill="#666" font-size="12" textLength="70.002" font-weight="700">Sorğulayır</text></g><!--link sub_svc to db_adapter--><g class="link" data-entity-1="ent0007" data-entity-2="ent0011" id="lnk28" data-source-line="1803" data-link-type="dependency"><path d="M423.14,664.497 C456.45,694.757 491.158,726.278 524.658,756.708" style="stroke:#666;stroke-width:1;" fill="none" id="sub_svc-to-db_adapter"/><polygon points="530.58,762.087,526.675,754.487,522.641,758.928,530.58,762.087" fill="#666" style="stroke:#666;stroke-width:1;stroke-linejoin:miter;stroke-miterlimit:10;"/><text x="493" y="722.586" fill="#666" font-size="12" textLength="35.209" font-weight="700">İdarə</text><text x="528.209" y="722.586" fill="#666" font-size="12" font-weight="700"> </text><text x="532.387" y="722.586" fill="#666" font-size="12" textLength="26.76" font-weight="700">edir</text></g><!--link card_svc to db_adapter--><g class="link" data-entity-1="ent0009" data-entity-2="ent0011" id="lnk30" data-source-line="1803" data-link-type="dependency"><path d="M756.37,673.777 C735.9,692.777 713.59,713.447 693,732.447 C682.58,742.067 677.41,746.833 666.63,756.743" style="stroke:#666;stroke-width:1;" fill="none" id="card_svc-to-db_adapter"/><polygon points="660.74,762.157,668.66,758.951,664.599,754.534,660.74,762.157" fill="#666" style="stroke:#666;stroke-width:1;stroke-linejoin:miter;stroke-miterlimit:10;"/><text x="724" y="722.586" fill="#666" font-size="12" textLength="35.209" font-weight="700">İdarə</text><text x="759.209" y="722.586" fill="#666" font-size="12" font-weight="700"> </text><text x="763.387" y="722.586" fill="#666" font-size="12" textLength="26.76" font-weight="700">edir</text></g><!--link notification_svc to db_adapter--><g class="link" data-entity-1="ent0010" data-entity-2="ent0011" id="lnk31" data-source-line="1803" data-link-type="dependency"><path d="M958.87,664.487 C952.85,667.577 946.87,670.587 941,673.447 C863.26,711.427 780.769,746.795 712.239,774.965" style="stroke:#666;stroke-width:1;" fill="none" id="notification_svc-to-db_adapter"/><polygon points="704.84,778.007,713.38,777.74,711.099,772.191,704.84,778.007" fill="#666" style="stroke:#666;stroke-width:1;stroke-linejoin:miter;stroke-miterlimit:10;"/><text x="878" y="722.586" fill="#666" font-size="12" textLength="86.953" font-weight="700">Oxuyur/Yazır</text></g><!--link card_svc to payment_gateway--><g class="link" data-entity-1="ent0009" data-entity-2="ent0012" id="lnk32" data-source-line="1803" data-link-type="dependency"><path d="M924.45,665.677 C930.3,668.487 936.18,671.107 942,673.447 C996.19,695.307 1015.23,683.097 1070,703.447 C1123.11,723.177 1132.98,735.847 1183,762.447 C1191.93,767.197 1194.216,768.405 1203.486,773.395" style="stroke:#666;stroke-width:1;" fill="none" id="card_svc-to-payment_gateway"/><polygon points="1210.53,777.187,1204.908,770.753,1202.064,776.037,1210.53,777.187" fill="#666" style="stroke:#666;stroke-width:1;stroke-linejoin:miter;stroke-miterlimit:10;"/><text x="1130" y="715.586" fill="#666" font-size="12" textLength="29.051" font-weight="700">Kart</text><text x="1159.051" y="715.586" fill="#666" font-size="12" font-weight="700"> </text><text x="1163.229" y="715.586" fill="#666" font-size="12" textLength="86.76" font-weight="700">doğruluğunu</text><text x="1249.988" y="715.586" fill="#666" font-size="12" font-weight="700"> </text><text x="1254.166" y="715.586" fill="#666" font-size="12" textLength="53.871" font-weight="700">yoxlayır</text><text x="1195.068" y="729.554" fill="#666" font-size="12" textLength="47.9" font-style="italic">[HTTPS]</text></g><!--link db_adapter to database--><g class="link" data-entity-1="ent0011" data-entity-2="ent0003" id="lnk33" data-source-line="1803" data-link-type="dependency"><path d="M596,882.887 C596,911.867 596,938.217 596,965.237" style="stroke:#666;stroke-width:1;" fill="none" id="db_adapter-to-database"/><polygon points="596,973.237,599,965.237,593,965.237,596,973.237" fill="#666" style="stroke:#666;stroke-width:1;stroke-linejoin:miter;stroke-miterlimit:10;"/><text x="597" y="926.696" fill="#666" font-size="12" textLength="26.49" font-weight="700">SQL</text><text x="623.49" y="926.696" fill="#666" font-size="12" font-weight="700"> </text><text x="627.668" y="926.696" fill="#666" font-size="12" textLength="60.68" font-weight="700">sorğuları</text><text x="688.348" y="926.696" fill="#666" font-size="12" font-weight="700"> </text><text x="692.525" y="926.696" fill="#666" font-size="12" textLength="58.055" font-weight="700">göndərir</text><text x="657.636" y="940.664" fill="#666" font-size="12" textLength="32.309" font-style="italic">[TCP]</text></g><g class="legend" data-source-line="66"><text x="1246.776" y="1118.739" fill="#000" font-size="14" textLength="57.921" font-weight="700">Legend</text><text x="1304.697" y="1118.739" fill="#FFF" font-size="14"> </text><rect x="1246.776" y="1122.041" width="150.65" height="16.297" fill="#08427B" style="stroke:none;"/><text x="1251.226" y="1135.036" fill="#FFF" font-size="14" textLength="47.988">person</text><rect x="1246.776" y="1138.338" width="150.65" height="16.297" fill="#1168BD" style="stroke:none;"/><text x="1251.226" y="1151.333" fill="#FFF" font-size="14" textLength="50.613">system</text><rect x="1246.776" y="1154.635" width="150.65" height="16.297" fill="#438DD5" style="stroke:none;"/><text x="1251.226" y="1167.63" fill="#FFF" font-size="14" textLength="66.336">container</text><rect x="1246.776" y="1170.932" width="150.65" height="16.297" fill="#85BBF0" style="stroke:none;"/><text x="1251.226" y="1183.927" fill="#FFF" font-size="14" textLength="79.201">component</text><rect x="1246.776" y="1187.229" width="150.65" height="16.297" fill="#686868" style="stroke:none;"/><text x="1251.226" y="1200.224" fill="#FFF" font-size="14" textLength="110.537">external person</text><rect x="1246.776" y="1203.526" width="150.65" height="16.297" fill="#999" style="stroke:none;"/><text x="1251.226" y="1216.521" fill="#FFF" font-size="14" textLength="113.162">external system</text><rect x="1246.776" y="1219.823" width="150.65" height="16.297" fill="#B3B3B3" style="stroke:none;"/><text x="1251.226" y="1232.818" fill="#FFF" font-size="14" textLength="128.885">external container</text><rect x="1246.776" y="1236.119" width="150.65" height="16.297" fill="#CCC" style="stroke:none;"/><text x="1251.226" y="1249.114" fill="#FFF" font-size="14" textLength="141.75">external component</text><line x1="1246.776" y1="1105.744" x2="1397.426" y2="1105.744" style="stroke:#FFF;stroke-width:1;"/><line x1="1246.776" y1="1122.041" x2="1397.426" y2="1122.041" style="stroke:#FFF;stroke-width:1;"/><line x1="1246.776" y1="1138.338" x2="1397.426" y2="1138.338" style="stroke:#FFF;stroke-width:1;"/><line x1="1246.776" y1="1154.635" x2="1397.426" y2="1154.635" style="stroke:#FFF;stroke-width:1;"/><line x1="1246.776" y1="1170.932" x2="1397.426" y2="1170.932" style="stroke:#FFF;stroke-width:1;"/><line x1="1246.776" y1="1187.229" x2="1397.426" y2="1187.229" style="stroke:#FFF;stroke-width:1;"/><line x1="1246.776" y1="1203.526" x2="1397.426" y2="1203.526" style="stroke:#FFF;stroke-width:1;"/><line x1="1246.776" y1="1219.823" x2="1397.426" y2="1219.823" style="stroke:#FFF;stroke-width:1;"/><line x1="1246.776" y1="1236.119" x2="1397.426" y2="1236.119" style="stroke:#FFF;stroke-width:1;"/><line x1="1246.776" y1="1252.416" x2="1397.426" y2="1252.416" style="stroke:#FFF;stroke-width:1;"/><line x1="1246.776" y1="1105.744" x2="1246.776" y2="1252.416" style="stroke:#FFF;stroke-width:1;"/><line x1="1397.426" y1="1105.744" x2="1397.426" y2="1252.416" style="stroke:#FFF;stroke-width:1;"/></g><?plantuml-src bLPDS-964BthLtGu9505oo5xoc6hREoixSKVkx3hRALIL4ipXWaZ2KOpNkHK_aQgEFcur_N59z_01_vLUaOI4k0uNb_0Gt-yUVtwIJ-8A926SHXfFKb-QRSLVdar57faV9Dm5SIHvf5-5SHXUo8nqYQKhKGpAVnsvtNhmXvzFEssGqmqLtGqwCJX98vipeHYFQ-xz_dyOtzmUTm_6dGFtnwU7TGRdgU5bXpMiN0WSAWmX7hdDNJvDPVmSmDQyE6mruUzYsFeSNNDbUTr20-AYAlwbNBGM1Dgfx4l97pYFlHNS-sBANmyhj7vKV-qsuHEhzU4avuze4gjT3M7etx_eWUBXvlLN8c8hUOH9B5QtXg92eQBUtkaX7fLQrGQ1jIGQdJe0qvY7tuJBAHsmXO-YnblsG2eNyPgp5N3zQSga21gMDpR9kBn5ZGgCPEkhu1hmgBvZHHZ6Atch3XEuvd4T7cdcg1Nyx52HJI762tl8fYYUhnTtYNqVNa7I81n2YdEw7-9ZxT847r3TtY88AOirsB80p4ERVSr3jiAV5JKbG9yl466S4M7JD1FZxTCA25Tocmrz-qvWLZUJO6Ojhzb5GWgzMU4T8Eg0x_EKAEF2ISMFd5bQqQkvJvr8koMdNE50McW3HTneeUAzzvtxV7fQYvDY9fkHXTCCAV2Dl1wAQai7Ep79Y8yQHqdOf0uPL3YbbP8IWKUA18QjGRyvG7zhPLNLx7HBlzmDb4yIU23Eu0VOS_e4PmAnYJ_WehNTc8SN3iFPRGbtn8HegFyvB8FEXxpA1icpSfEpOvCCCiwS9RfouBPGeJKTv1S1rHz-ItHuWffHeklWgXoaAh2smzKEj44bXhMTXAcF6KYJL4lxvemT6FBDBUQZ-JYORoQ9yAfRpMdYjA5EjuTq43X1imIOMBy7E2URoARETv0TOBNs0kK86Hs22gMCcDh7Pv9lP2F3Aqecg0umx6sg1pCH4WHXVPVMeedU2i1-OODkSunxIyUM42XBq9K14iHaYNb2qWGKa9dUsL09jQZ2CQCLhoOT2xAJI01AfR3MFnJxFmxLBcSNmIfJ0ovZbana2QCgGwmU4bwanZYUb8M8h6Az5dSu5csefWq8WBK8euApegr_Y-8Tgb4m3VnEUyYfgp7BEvjmvTOICWJ_3FZOuGtH6EsuUuQrebI95tSLEZTWi_y0RdL9DlQfzm5zkpFiJAbpHpiq_PCXX18GINSu2aMR2fPclAjTJeEftGmDSfaSCYJoYV34slnzzgJ3cUwFi4qfEg38MfoZ7I3gWiLNsFA22tKJ-DWx1uGxpO7Qg4l7XPVoRoTtVq4NKp9QU18H3g1-bib62HQcK0RnHjUPbtG-dr49iMZFrZy9MgzWNmxlS97oW0bXYDTYSW_TmFAVVBAhxjXXTgzuijkoBRMl79wPR2PRFQaczEuGnFbYOdtWSlA4t_jsTc3l4sFz_Epwg2SUEcixGA8IvkVFS2V5R_r8ntI4pKV0oo-ul8sM_Qi9lngei3cGWUbj5EofGj05Uj-wogstnSM32czLrYbsbOgXrJaFMMeJtdoSpMUzC3lBLBnBoVExyr_bjsjJTgkumgL36wiUIzFjKQHjrnpjX6u_5OwNnvO9MOZzdncKgFQdvtP529P4_1_PNUl-cpnhUgxNb4r0qENZKpv8bWhj9xthdQgl6fjsLNbLTOMw7SkQer_0G00?></g></svg>