<svg viewBox="0 0 100 100" fill="none" xmlns="http://www.w3.org/2000/svg">
  <defs>
    <filter id="logoGlow" x="-20%" y="-20%" width="140%" height="140%">
      <feGaussianBlur stdDeviation="5" result="blur" />
      <feComposite in="SourceGraphic" in2="blur" operator="over" />
    </filter>
    <linearGradient id="abuneGrad1" x1="0%" y1="0%" x2="100%" y2="100%">
      <stop offset="0%" stop-color="#4F46E5" />
      <stop offset="50%" stop-color="#7C3AED" />
      <stop offset="100%" stop-color="#EC4899" />
    </linearGradient>
    <linearGradient id="abuneGrad2" x1="0%" y1="100%" x2="100%" y2="0%">
      <stop offset="0%" stop-color="#06B6D4" />
      <stop offset="100%" stop-color="#10B981" />
    </linearGradient>
    <linearGradient id="glassShine" x1="0%" y1="0%" x2="100%" y2="100%">
      <stop offset="0%" stop-color="#FFFFFF" stop-opacity="0.6" />
      <stop offset="40%" stop-color="#FFFFFF" stop-opacity="0.1" />
      <stop offset="100%" stop-color="#FFFFFF" stop-opacity="0.0" />
    </linearGradient>
  </defs>
  <rect width="100" height="100" rx="28" fill="#0f172a"/>
  <circle cx="50" cy="50" r="38" fill="url(#abuneGrad1)" opacity="0.25" filter="url(#logoGlow)"/>
  <path d="M 28 50 C 28 32, 45 32, 50 50 C 55 68, 72 68, 72 50" stroke="url(#abuneGrad2)" stroke-width="6" stroke-linecap="round" fill="none" opacity="0.45"/>
  <g filter="url(#logoGlow)">
    <rect x="22" y="30" width="56" height="40" rx="10" fill="rgba(15, 23, 42, 0.95)" stroke="url(#abuneGrad1)" stroke-width="3"/>
    <rect x="23" y="31" width="54" height="38" rx="9" fill="url(#glassShine)"/>
    <line x1="22" y1="42" x2="78" y2="42" stroke="url(#abuneGrad1)" stroke-width="3.5" opacity="0.85"/>
    <rect x="29" y="52" width="10" height="8" rx="2.5" fill="url(#abuneGrad2)"/>
    <line x1="45" y1="55" x2="68" y2="55" stroke="#FFFFFF" stroke-width="2" stroke-linecap="round" opacity="0.7"/>
    <line x1="45" y1="60" x2="60" y2="60" stroke="#FFFFFF" stroke-width="1.5" stroke-linecap="round" opacity="0.4"/>
  </g>
  <path d="M 72 50 C 72 32, 55 32, 50 50 C 45 68, 28 68, 28 50" stroke="url(#abuneGrad2)" stroke-width="6" stroke-linecap="round" fill="none"/>
  <circle cx="72" cy="32" r="4.5" fill="#10B981"/>
  <circle cx="72" cy="32" r="8" fill="#10B981" opacity="0.3"/>
</svg>
