<svg xmlns="http://www.w3.org/2000/svg" viewBox="0 0 30 10" fill="none">
  <path d="M11.2 0l-1.8 7.5H9.5L11.2 0h1.7zm6.3 3.3c0-1.1-.9-1.5-2-1.5-1.5 0-2.2.4-2.2.4l-.3-1C13 1.2 14.1.9 15.3.9c2.2 0 3.6.9 3.6 2.3 0 1.9-2.6 1.9-2.6 3 0 .4.6.6 1.2.6 1 0 1.8-.3 1.8-.3l.3.9c0 0-.8.4-2.1.4-2.3 0-3.7-.9-3.7-2.3 0-2.1 2.6-2.1 2.6-3.2zM21 0l-2 7.5h1.7L22.7 0H21zm-13.6 0L4.2 5.2 3.6 1.1C3.4.4 2.8 0 2.1 0H0L.1.3c1.3.3 2.5.8 3.5 1.4.6.4.8.8.9 1.4l1.6 6.4 1.8-7.5H7.4z" fill="#FFFFFF"/>
  <path d="M4.2 5.2L7.4 0H5.5L4.2 5.2z" fill="#F7B600"/>
</svg>
