<svg xmlns="http://www.w3.org/2000/svg" viewBox="0 0 1000 326" fill="none">
  <path fill="#FFFFFF" d="M380.7 7.2l-37 236h-47.7l37-236H380.7zM591.9 83.2c-4.9-18.4-25.2-25-45.7-25-35.9 0-59.5 15.6-59.8 37.8-.3 34.6 48.7 36.6 48.4 55.4 0 5.7-6.9 11.9-21.8 11.9-20.1 0-35-9.1-35-9.1l-6.2 24.8c0 0 16.3 7.5 44.9 7.5 37.8 0 62.1-18.9 62.4-42.9.3-38.1-48.7-40.3-48.4-57.5 0-6 7.2-12.7 22.8-12.7 17.2 0 30.2 7.5 30.2 7.5l6.2-25.2zM731.8 7.2h-36.9c-11.4 0-20.1 3.2-25.2 15.3l-88.7 220.7h50.1l10-27.7h61.2l5.9 27.7H732l-20.2-236zm-27.7 167l20.5-56.3 11.7 56.3h-32.2z"/>
  <path fill="#FFFFFF" d="M192 7.2L135.5 243.2H87.7L46.9 44C39.4 20.2 21.2 7.2 1.6 7.2H0v5.5c41.3 9.4 75.2 28.3 98.6 57.6C112.5 87.7 114.1 98 120.3 125.7l34.2 117.5h50.1L279.7 7.2H192z"/>
  <path fill="#F7B600" d="M135.5 243.2L182 7.2H135.5l-47.8 199.2z"/>
</svg>
